<svg width="1440" height="1024" viewBox="0 0 1440 1024" fill="none" xmlns="http://www.w3.org/2000/svg">
<g clip-path="url(#clip0)">
<rect width="1440" height="1024" fill="#1D3557"/>
<path d="M46.7567 303.358C42.5403 305.859 39.3808 309.445 37.401 313.557L30.7353 317.511C30.7084 317.527 30.6816 317.543 30.6547 317.559C30.6278 317.575 30.6009 317.591 30.5741 317.607C30.21 317.927 30.1296 318.465 30.3854 318.881L35.1679 326.945C35.5583 330.137 36.6141 333.303 38.3578 336.243C40.1014 339.183 42.3734 341.628 44.988 343.501L51.8111 355.005C52.0921 355.479 52.7076 355.636 53.1813 355.355L89.3052 333.929C89.779 333.648 89.9362 333.033 89.6552 332.559L82.8321 321.055C82.4417 317.863 81.3859 314.696 79.6422 311.757C77.8986 308.817 75.6266 306.372 73.012 304.499L68.2295 296.435C67.9485 295.961 67.333 295.804 66.8592 296.085L60.1935 300.039C55.6352 299.804 50.9732 300.857 46.7567 303.358ZM47.777 305.078C50.5925 303.408 53.6436 302.434 56.6994 302.111L40.8952 311.485C42.6438 308.958 44.9615 306.748 47.777 305.078ZM32.6157 318.721L36.1905 316.601C35.5425 318.602 35.1467 320.699 35.0388 322.806L32.6157 318.721ZM38.9589 314.959L47.2642 310.033C46.6822 311.441 46.7247 313.105 47.5576 314.509C48.9605 316.875 52.0435 317.662 54.4088 316.259C56.774 314.856 57.5614 311.773 56.1586 309.408C55.3256 308.004 53.8855 307.168 52.371 307.004L60.6762 302.078C61.8897 302.171 63.098 302.34 64.2749 302.632C63.664 302.881 63.1517 303.38 62.8904 304.035L58.5206 314.983L51.3173 319.255L39.6142 317.84C38.934 317.758 38.2791 317.955 37.7733 318.351C37.7585 318.364 37.7344 318.369 37.7196 318.382C38.0276 317.21 38.4588 316.068 38.9589 314.959ZM63.4447 300.436L67.0194 298.316L69.4426 302.401C67.5413 301.485 65.5114 300.827 63.4447 300.436ZM50.3277 309.378C51.7623 308.528 53.5875 308.994 54.4384 310.428C55.2893 311.863 54.8231 313.688 53.3885 314.539C51.9539 315.39 50.1287 314.924 49.2778 313.489C48.4269 312.054 48.8931 310.229 50.3277 309.378ZM38.9927 319.916C39.0956 319.837 39.2198 319.786 39.363 319.806L51.4196 321.266C51.6425 321.297 51.8739 321.251 52.0688 321.135L59.8096 316.544C60.0045 316.428 60.1561 316.247 60.2356 316.037L64.7358 304.757C64.841 304.49 65.135 304.365 65.4018 304.471C65.6686 304.576 65.793 304.87 65.6878 305.137L60.4386 318.278C60.3227 318.542 60.3339 318.844 60.4558 319.104L63.8359 325.782C63.9334 325.97 64.086 326.12 64.2731 326.213L77.6194 333.339C78.1859 333.644 78.3191 334.328 77.9227 334.831C77.6321 335.199 77.1357 335.311 76.71 335.114L65.2988 328.984C64.9942 328.815 64.621 328.814 64.318 328.984L62.7322 329.925C62.643 329.951 62.553 329.99 62.4744 330.042C62.4515 330.064 62.4306 330.09 62.4097 330.116L60.8239 331.057C60.5289 331.241 60.351 331.569 60.3533 331.917L60.2607 344.871C60.2295 345.339 59.8926 345.72 59.4307 345.799C58.7937 345.904 58.2627 345.461 58.2673 344.818L58.4138 329.689C58.4215 329.48 58.3629 329.274 58.2453 329.098L54.0051 322.93C53.8361 322.698 53.5763 322.544 53.2891 322.519L39.24 320.823C38.9521 320.79 38.759 320.541 38.7927 320.253C38.8121 320.11 38.8898 319.996 38.9927 319.916ZM37.1463 321.52C37.5246 322.204 38.1886 322.719 39.0047 322.816L44.2484 323.448L39.8135 326.079C38.6376 326.776 38.2412 328.328 38.9386 329.504C39.6361 330.68 41.1883 331.076 42.3642 330.379L52.4166 324.417L52.6147 324.445L56.4025 329.973L56.2898 344.791C56.2866 345.161 56.3558 345.515 56.4774 345.843C49.8932 345.079 43.7246 341.371 40.078 335.223C38.4678 332.508 37.4878 329.593 37.1363 326.649C37.1404 326.633 37.1431 326.622 37.1472 326.606C37.1421 326.559 37.1423 326.514 37.1372 326.467C37.1314 326.434 37.1255 326.401 37.1163 326.37C36.9456 324.75 36.9653 323.122 37.1463 321.52ZM67.3033 303.634C68.7954 304.243 70.2339 305.006 71.5738 305.933C71.6491 306.006 71.7339 306.065 71.8247 306.111C71.8414 306.124 71.8648 306.133 71.8835 306.149C71.8996 306.153 71.9103 306.156 71.9263 306.16C74.2925 307.867 76.3359 310.103 77.9221 312.777C79.5481 315.519 80.4972 318.466 80.8419 321.437C80.8477 321.469 80.8536 321.502 80.8628 321.533C81.271 325.192 80.7444 328.884 79.3774 332.26C79.1483 331.997 78.8708 331.766 78.5447 331.592L65.4873 324.585L62.452 318.61L62.5226 318.423L72.575 312.46C73.7509 311.763 74.1473 310.211 73.4499 309.035C72.7524 307.859 71.2002 307.463 70.0243 308.16L65.5894 310.79L67.5491 305.886C67.8517 305.125 67.72 304.29 67.3033 303.634ZM40.8338 327.799L47.4727 323.861C47.4895 323.851 47.5096 323.839 47.5264 323.829L49.1385 324.036L41.3439 328.659C41.0987 328.804 40.8043 328.729 40.6588 328.484C40.5134 328.239 40.5885 327.944 40.8338 327.799ZM64.352 313.85L64.3789 313.834C64.3889 313.828 64.3957 313.824 64.4057 313.818L71.0446 309.88C71.2898 309.735 71.5842 309.81 71.7297 310.055C71.8752 310.3 71.8 310.595 71.5547 310.74L63.7601 315.363L64.352 313.85ZM62.328 332.49L62.7311 332.251L68.7571 342.411C69.0461 342.898 68.8943 343.492 68.4072 343.781C67.92 344.07 67.3259 343.918 67.037 343.431L62.3182 335.475L62.328 332.49ZM64.4513 331.231L64.8545 330.992L67.4787 332.414L72.1975 340.37C72.4865 340.857 72.3347 341.452 71.8476 341.741C71.3604 342.029 70.7663 341.878 70.4773 341.391L64.4513 331.231ZM48.5575 345.599C52.6882 347.586 57.3474 348.397 61.9446 347.832L53.0212 353.125L48.5575 345.599ZM82.9612 325.194L87.4249 332.719L78.5014 338.012C81.2016 334.249 82.7242 329.771 82.9612 325.194ZM62.3038 339.371L65.3168 344.451C65.4244 344.633 65.5508 344.808 65.6894 344.957C64.5097 345.334 63.3119 345.604 62.1051 345.775C62.1894 345.534 62.259 345.284 62.2751 345.02C62.2752 344.997 62.2733 344.971 62.2701 344.95L62.3038 339.371ZM70.9047 334.27L75.8166 336.916C75.8332 336.929 75.8553 336.943 75.8753 336.954C76.1146 337.066 76.3675 337.125 76.6192 337.166C75.8907 338.143 75.0795 339.065 74.1828 339.919C74.1181 339.726 74.0253 339.531 73.9177 339.35L70.9047 334.27Z" fill="#457B9D" fill-opacity="0.3"/>
<g clip-path="url(#clip1)">
<path d="M660.099 892.49C658.513 892.073 656.901 892.763 656.062 894.077C652.631 893.977 649.331 894.727 646.326 896.198C646.065 896.052 645.771 895.955 645.473 895.876L642.844 895.184C640.876 894.665 638.865 895.812 638.363 897.719L637.797 899.865C637.55 900.806 638.001 901.805 638.805 902.296C637.954 903.425 637.207 904.638 636.584 905.944L635.919 905.769C633.951 905.25 631.94 906.397 631.438 908.305L630.873 910.45C630.573 911.587 631.294 912.823 632.431 913.123L634.546 913.68C634.428 915.891 634.618 918.082 635.153 920.206C633.573 920.255 632.15 921.302 631.739 922.862L631.174 925.007C630.875 926.144 631.595 927.38 632.732 927.68L636.902 928.778L631.199 934.482L630.776 934.371C630.745 934.363 630.715 934.355 630.685 934.347C630.655 934.339 630.625 934.331 630.594 934.323C630.03 934.227 629.497 934.608 629.401 935.172C629.305 935.737 629.686 936.269 630.25 936.365L637.019 938.149C637.443 938.256 637.889 938.083 638.13 937.718C638.372 937.354 638.357 936.873 638.093 936.525L642.755 931.71C643.565 932.347 644.443 932.938 645.393 933.471L645.027 934.861C644.704 936.089 645.467 937.239 646.585 937.534L652.115 938.991C653.252 939.29 654.488 938.57 654.788 937.433L655.154 936.043C656.224 936.062 657.288 936.023 658.37 935.856L660.079 942.252C659.62 942.398 659.323 942.836 659.357 943.318C659.393 943.796 659.755 944.186 660.228 944.262L666.997 946.046C667.548 946.191 668.111 945.863 668.257 945.311C668.402 944.76 668.074 944.196 667.522 944.051L667.099 943.94L664.982 936.273L669.183 937.379C670.41 937.702 671.561 936.939 671.855 935.821L672.421 933.675C672.853 932.032 672.105 930.349 670.699 929.538C672.205 927.975 673.493 926.186 674.435 924.188L676.55 924.745C677.687 925.045 678.923 924.324 679.223 923.187L679.788 921.042C680.307 919.074 679.13 917.055 677.162 916.536L676.467 916.353C676.555 914.943 676.517 913.555 676.337 912.183C677.255 912.178 678.079 911.628 678.439 910.83C678.456 910.782 678.469 910.729 678.479 910.679L679.044 908.533C679.562 906.565 678.385 904.546 676.417 904.028L673.788 903.335C673.463 903.25 673.139 903.209 672.82 903.209C670.999 900.431 668.424 898.137 665.369 896.529C665.294 894.974 664.266 893.588 662.728 893.183L660.099 892.49ZM659.832 894.488L661.886 895.029C661.82 895.145 661.759 895.267 661.723 895.406L661.675 895.588C661.471 896.362 661.902 897.102 662.676 897.306L662.858 897.354C662.997 897.39 663.133 897.398 663.267 897.397L662.765 899.3C662.754 899.342 662.775 899.4 662.56 899.343L657.03 897.887C656.988 897.876 656.93 897.897 656.987 897.681L657.464 895.868C657.58 895.935 657.702 895.995 657.841 896.032L658.023 896.08C658.797 896.284 659.537 895.853 659.741 895.078L659.789 894.897C659.825 894.757 659.833 894.622 659.832 894.488ZM655.317 896.046C655.329 896.045 655.335 896.055 655.347 896.054L655.053 897.172C654.753 898.309 655.402 899.526 656.52 899.821L662.05 901.277C663.187 901.577 664.404 900.928 664.699 899.81L665.017 898.601C667.337 899.931 669.34 901.727 670.819 903.813C670.1 904.27 669.517 904.953 669.232 905.787C669.227 905.806 669.221 905.828 669.216 905.847L668.651 907.993C668.328 909.221 669.091 910.371 670.209 910.665L674.228 911.724C674.453 913.096 674.552 914.467 674.502 915.836C672.546 915.337 670.543 916.514 670.027 918.47L669.462 920.616C669.139 921.844 669.902 922.994 671.02 923.289L672.471 923.671C671.494 925.631 670.191 927.356 668.585 928.852L667.165 928.478C665.631 928.074 664.058 928.693 663.198 929.921L660.131 918.869C660.665 918.222 661.085 917.456 661.312 916.594C662.152 913.403 660.23 910.105 657.038 909.264C653.846 908.423 650.548 910.346 649.707 913.538C649.485 914.384 649.455 915.248 649.592 916.06L641.57 924.062C641.364 922.638 640.323 921.407 638.85 921.018L637.369 920.628C636.726 918.56 636.462 916.419 636.54 914.205L637.87 914.556C639.007 914.855 640.224 914.206 640.519 913.088L641.084 910.943C641.602 908.975 640.456 906.964 638.548 906.461C639.184 905.211 639.972 904.045 640.866 902.936L644.795 903.971C645.932 904.27 647.059 903.642 647.495 902.678C647.511 902.63 647.525 902.577 647.534 902.527L648.1 900.381C648.344 899.452 648.18 898.528 647.761 897.739C650.133 896.664 652.678 896.066 655.317 896.046ZM642.576 897.181L644.631 897.723C644.564 897.838 644.504 897.96 644.467 898.1L644.419 898.281C644.215 899.055 644.647 899.795 645.421 899.999L645.602 900.047C645.776 900.093 645.945 900.097 646.11 900.083L645.632 901.897C645.569 902.013 645.497 902.087 645.304 902.036L639.865 900.604C639.65 900.547 639.675 900.59 639.731 900.374L640.209 898.561C640.325 898.628 640.446 898.688 640.586 898.725L640.767 898.773C641.542 898.977 642.281 898.546 642.485 897.771L642.533 897.59C642.57 897.45 642.577 897.315 642.576 897.181ZM673.521 905.333L675.575 905.874C675.509 905.99 675.448 906.112 675.412 906.251L675.364 906.433C675.16 907.207 675.591 907.947 676.365 908.151L676.547 908.199C676.72 908.244 676.889 908.248 677.054 908.235L676.576 910.048C676.513 910.165 676.441 910.239 676.249 910.188L670.719 908.731C670.677 908.72 670.552 908.627 670.585 908.502L671.071 906.659C671.208 906.752 671.357 906.831 671.53 906.877L671.712 906.925C672.486 907.129 673.226 906.698 673.43 905.923L673.477 905.742C673.514 905.602 673.522 905.467 673.521 905.333ZM656.528 911.198C658.678 911.764 659.944 913.936 659.377 916.085C659.211 916.716 658.895 917.271 658.493 917.726C658.432 917.771 658.375 917.82 658.324 917.876C658.277 917.916 658.234 917.957 658.194 918.003C658.174 918.03 658.155 918.057 658.14 918.086C657.408 918.729 656.464 919.078 655.459 919.06C655.427 919.06 655.401 919.036 655.368 919.036C655.307 919.024 655.244 919.019 655.179 919.019C655.147 919.018 655.114 919.021 655.081 919.025C654.885 919.002 654.687 918.986 654.49 918.934C654.222 918.863 653.968 918.756 653.729 918.636C653.718 918.63 653.709 918.635 653.698 918.628C653.671 918.609 653.644 918.59 653.616 918.574C652.019 917.721 651.158 915.883 651.641 914.047C652.208 911.898 654.379 910.632 656.528 911.198ZM674.325 917.858L674.658 917.945C674.928 918.255 675.358 918.368 675.746 918.232L676.441 918.415C676.348 918.552 676.268 918.701 676.223 918.874L676.175 919.056C675.971 919.83 676.402 920.57 677.176 920.774L677.358 920.822C677.498 920.858 677.633 920.866 677.767 920.865L677.289 922.678C677.232 922.893 677.275 922.868 677.06 922.811L671.53 921.355C671.488 921.344 671.363 921.25 671.396 921.125L671.882 919.282C672.019 919.375 672.168 919.454 672.341 919.5L672.523 919.548C673.297 919.752 674.037 919.321 674.241 918.546L674.289 918.365C674.334 918.191 674.338 918.023 674.325 917.858ZM635.651 907.766L636.467 907.981C636.682 908.147 636.954 908.219 637.223 908.18L637.706 908.308C637.639 908.423 637.579 908.545 637.542 908.685L637.495 908.866C637.291 909.64 637.722 910.38 638.496 910.584L638.677 910.632C638.817 910.669 638.953 910.676 639.086 910.675L638.585 912.579C638.574 912.62 638.595 912.678 638.38 912.622L636.083 912.017C635.992 911.964 635.893 911.926 635.789 911.907C635.756 911.906 635.723 911.91 635.69 911.913L632.94 911.189C632.725 911.132 632.75 911.175 632.807 910.96L633.284 909.146C633.4 909.213 633.521 909.274 633.661 909.31L633.842 909.358C634.617 909.562 635.357 909.131 635.56 908.357L635.608 908.175C635.645 908.035 635.652 907.9 635.651 907.766ZM650.347 918.101C650.695 918.698 651.14 919.231 651.677 919.679L636.034 935.756L633.435 935.071L640.291 928.184C640.599 928.088 640.839 927.852 640.943 927.548L650.347 918.101ZM658.46 920.303L662.115 933.417C662.123 933.524 662.152 933.628 662.195 933.728L662.484 934.839C662.484 935.008 662.528 935.178 662.614 935.325L664.833 943.343L662.264 942.666L656.504 920.983C657.193 920.866 657.858 920.641 658.46 920.303ZM653.475 920.703C653.637 920.761 653.811 920.823 653.981 920.868C654.121 920.905 654.273 920.925 654.412 920.949L657.849 933.909C657.058 934.015 656.259 934.055 655.452 934.053C655.33 932.538 654.279 931.191 652.727 930.782L650.098 930.089C648.545 929.68 646.967 930.335 646.114 931.593C645.432 931.195 644.779 930.744 644.168 930.272L653.475 920.703ZM635.953 922.324L638.008 922.865C637.941 922.981 637.881 923.102 637.844 923.242L637.796 923.423C637.592 924.197 638.023 924.937 638.798 925.141L638.979 925.189C639.153 925.235 639.321 925.239 639.486 925.226L639.144 926.525L638.53 927.139L633.242 925.746C633.026 925.689 633.051 925.732 633.108 925.517L633.586 923.704C633.702 923.77 633.823 923.831 633.963 923.868L634.144 923.915C634.918 924.119 635.658 923.688 635.862 922.914L635.91 922.732C635.947 922.593 635.954 922.457 635.953 922.324ZM666.897 930.475L668.952 931.017C668.885 931.132 668.825 931.254 668.788 931.394L668.74 931.575C668.536 932.349 668.968 933.089 669.742 933.293L669.923 933.341C670.097 933.387 670.266 933.391 670.431 933.377L669.921 935.311C669.91 935.353 669.817 935.478 669.692 935.445L664.343 934.036L664.148 933.306L664.53 931.855C664.646 931.922 664.767 931.982 664.907 932.019L665.088 932.067C665.863 932.271 666.602 931.84 666.806 931.065L666.854 930.884C666.891 930.744 666.898 930.609 666.897 930.475ZM649.89 932.103L652.006 932.66C651.913 932.797 651.833 932.946 651.788 933.12L651.74 933.301C651.536 934.075 651.967 934.815 652.741 935.019L652.923 935.067C653.04 935.098 653.15 935.123 653.263 935.124C653.274 935.159 653.285 935.195 653.3 935.231L652.854 936.923C652.797 937.138 652.84 937.113 652.625 937.057L647.095 935.6C647.053 935.589 646.928 935.495 646.961 935.371L647.407 933.679C647.428 933.644 647.451 933.605 647.469 933.566C647.597 933.648 647.748 933.704 647.906 933.745L648.088 933.793C648.862 933.997 649.602 933.566 649.806 932.792L649.854 932.61C649.899 932.437 649.903 932.268 649.89 932.103Z" fill="#457B9D" fill-opacity="0.3"/>
</g>
<path d="M397.669 960.007C395.405 959.279 393.052 959.831 391.298 961.241C390.575 960.339 389.694 959.543 388.489 959.156C385.325 958.138 381.958 959.866 380.941 963.031C380.395 964.727 380.645 966.477 381.476 967.898L372.618 995.446C371.999 997.368 371.997 999.148 372.761 1000.61C373.521 1002.07 374.975 1003.08 376.905 1003.65C376.916 1003.66 376.924 1003.66 376.935 1003.66L394.814 1009.41C396.729 1010.03 398.488 1010.07 399.962 1009.33C401.437 1008.58 402.477 1007.12 403.11 1005.15L404.43 1001.05C407.643 1002.08 410.783 1000.8 413.209 998.553C415.635 996.304 417.498 993.075 418.542 989.829C419.636 986.426 417.765 983.276 414.667 982.28C413.161 981.796 411.712 981.683 410.668 981.651L411.72 978.378C413.744 977.942 415.482 976.478 416.164 974.358C417.182 971.193 415.454 967.827 412.289 966.809C410.809 966.333 409.287 966.599 407.955 967.221C407.235 965.939 406.153 964.836 404.673 964.36C403.74 964.06 402.792 964.059 401.865 964.212C401.136 962.32 399.704 960.661 397.669 960.007ZM397.057 961.911C398.693 962.437 400.018 963.946 400.366 965.503C400.436 965.772 400.611 966.004 400.852 966.135C401.096 966.271 401.383 966.298 401.649 966.211C402.369 965.962 403.187 965.983 404.061 966.264C405.266 966.652 406.224 967.641 406.607 968.757C406.706 969.064 406.948 969.306 407.253 969.404C407.558 969.502 407.896 969.446 408.154 969.255C409.117 968.571 410.472 968.326 411.677 968.713C413.845 969.41 414.957 971.578 414.26 973.746C413.563 975.914 411.396 977.026 409.228 976.329C408.023 975.942 407.065 974.953 406.681 973.836C406.583 973.53 406.34 973.288 406.036 973.19C405.731 973.091 405.393 973.147 405.134 973.339C404.534 973.761 402.43 974.603 401.741 976.745C400.891 979.389 400.804 981.433 400.849 982.99C400.894 984.547 400.999 985.586 400.794 986.222C400.287 987.799 398.596 988.667 397.02 988.16C395.443 987.653 394.575 985.962 395.082 984.386C395.287 983.75 395.977 982.967 396.922 981.727C397.866 980.488 398.987 978.776 399.837 976.132C400.48 974.132 399.486 972.351 399.097 971.594C398.851 971.121 398.282 970.926 397.798 971.144C396.616 971.679 395.353 971.868 393.996 971.431C392.408 970.92 391.335 969.689 390.81 968.273C390.693 967.948 390.422 967.705 390.085 967.629C389.747 967.558 389.399 967.659 389.155 967.905C388.214 968.817 386.822 969.124 385.428 968.676C383.26 967.979 382.147 965.811 382.844 963.643C383.542 961.475 385.709 960.363 387.877 961.06C388.937 961.401 389.704 962.14 390.291 963.149C390.451 963.43 390.739 963.618 391.062 963.647C391.384 963.681 391.7 963.553 391.913 963.31C393.15 961.89 395.142 961.295 397.057 961.911ZM389.503 969.888C390.322 971.398 391.55 972.745 393.384 973.335C394.882 973.817 396.313 973.629 397.622 973.221C397.924 973.929 398.183 974.743 397.933 975.52C397.205 977.785 396.333 979.207 395.503 980.319L381.075 975.679L383.017 969.64C383.545 970.04 384.146 970.365 384.816 970.58C386.448 971.105 388.103 970.73 389.503 969.888ZM405.444 975.539C406.171 976.737 407.202 977.779 408.615 978.233C408.939 978.337 409.271 978.403 409.596 978.45L408.4 982.169C408.333 982.287 408.29 982.421 408.276 982.556L407.731 984.251L402.822 982.673C402.796 981.286 402.917 979.622 403.645 977.357C403.901 976.561 404.658 976.045 405.444 975.539ZM414.055 984.184C416.29 984.903 417.442 986.718 416.638 989.217C415.692 992.158 413.947 995.122 411.849 997.065C409.751 999.008 407.448 999.917 405.042 999.143L409.271 985.994C409.338 985.876 409.381 985.742 409.395 985.607L410.027 983.644C410.893 983.631 412.5 983.684 414.055 984.184ZM380.463 977.583L394.177 981.994C393.764 982.538 393.396 983.097 393.178 983.773C392.337 986.388 393.793 989.223 396.407 990.064C399.022 990.905 401.857 989.449 402.698 986.835C402.916 986.158 402.942 985.489 402.924 984.806L407.118 986.155L402.89 999.305C402.823 999.423 402.78 999.556 402.765 999.691L401.206 1004.54C400.675 1006.19 399.94 1007.09 399.064 1007.53C398.187 1007.97 397.033 1008.02 395.427 1007.51L377.517 1001.75C377.506 1001.74 377.499 1001.74 377.487 1001.74C375.878 1001.27 374.986 1000.57 374.531 999.705C374.076 998.836 374.007 997.657 374.522 996.058L380.463 977.583Z" fill="#457B9D" fill-opacity="0.3"/>
<path d="M1396 955C1393.8 955 1392 956.801 1392 959C1392 960.012 1392.4 960.918 1393.03 961.625C1392.27 962.367 1390.88 963.852 1389.81 966.031C1389 965.086 1388.08 964.5 1387.38 964.125C1387.77 963.508 1388 962.781 1388 962C1388 959.801 1386.2 958 1384 958C1381.8 958 1380 959.801 1380 962C1380 963.852 1381.28 965.398 1383 965.844C1383.05 968.324 1383.75 970.414 1385.25 971.844C1386.81 973.32 1389.09 973.996 1391.97 974C1391.95 974.707 1391.94 975.379 1391.88 976H1389.5C1387.1 976 1385 977.715 1385 980C1385 982.094 1386.77 983.711 1388.91 983.969C1388.04 985.027 1387.11 985.805 1386.25 986.625C1385.3 987.531 1384.42 988.605 1384.13 990.031C1381.9 990.141 1380 991.816 1380 994C1380 995.379 1380.76 996.566 1381.88 997.281C1380.59 998.633 1379.6 1000.05 1379.19 1001.41C1378.94 1002.22 1378.89 1003.11 1379.35 1003.88C1379.81 1004.64 1380.73 1005 1381.72 1005H1410.28C1411.28 1005 1412.23 1004.64 1412.69 1003.88C1413.15 1003.11 1413.06 1002.22 1412.81 1001.41C1412.4 1000.05 1411.42 998.633 1410.13 997.281C1411.24 996.566 1412 995.379 1412 994C1412 991.816 1410.11 990.141 1407.88 990.031C1407.58 988.609 1406.7 987.531 1405.75 986.625C1404.89 985.809 1403.96 985.027 1403.1 983.969C1405.23 983.711 1407 982.094 1407 980C1407 977.711 1404.9 976 1402.5 976H1400.16C1400.1 975.379 1400.05 974.707 1400.03 974C1402.91 973.996 1405.2 973.32 1406.75 971.844C1408.26 970.414 1408.96 968.324 1409 965.844C1410.72 965.398 1412 963.852 1412 962C1412 959.801 1410.2 958 1408 958C1405.8 958 1404 959.801 1404 962C1404 962.781 1404.23 963.508 1404.63 964.125C1403.92 964.5 1403 965.086 1402.19 966.031C1401.12 963.852 1399.73 962.367 1398.97 961.625C1399.6 960.918 1400 960.012 1400 959C1400 956.801 1398.2 955 1396 955ZM1396 957C1397.12 957 1398 957.883 1398 959C1398 960.117 1397.12 961 1396 961C1394.89 961 1394 960.117 1394 959C1394 957.883 1394.89 957 1396 957ZM1384 960C1385.12 960 1386 960.883 1386 962C1386 963.117 1385.12 964 1384 964C1382.89 964 1382 963.117 1382 962C1382 960.883 1382.89 960 1384 960ZM1408 960C1409.12 960 1410 960.883 1410 962C1410 963.117 1409.12 964 1408 964C1406.89 964 1406 963.117 1406 962C1406 960.883 1406.89 960 1408 960ZM1394.69 962.75C1395.1 962.895 1395.55 963 1396 963C1396.46 963 1396.9 962.895 1397.31 962.75C1397.64 963.012 1399.99 965 1401.06 968.312C1401.19 968.695 1401.54 968.965 1401.94 968.992C1402.35 969.02 1402.73 968.801 1402.91 968.438C1404.08 966.051 1406.22 965.562 1406.22 965.562C1406.47 965.688 1406.73 965.773 1407 965.844C1406.96 967.941 1406.4 969.398 1405.38 970.375C1404.3 971.395 1402.58 972 1400 972H1399.22C1399.12 971.973 1399.01 971.961 1398.91 971.969C1398.88 971.977 1398.85 971.988 1398.81 972H1393.22C1393.12 971.973 1393.01 971.961 1392.91 971.969C1392.88 971.977 1392.85 971.988 1392.81 972H1392C1389.42 972 1387.7 971.395 1386.63 970.375C1385.6 969.398 1385.05 967.941 1385 965.844C1385.28 965.773 1385.53 965.688 1385.78 965.562C1385.78 965.562 1387.92 966.051 1389.1 968.438C1389.28 968.801 1389.65 969.02 1390.06 968.992C1390.46 968.965 1390.81 968.695 1390.94 968.312C1392.02 965 1394.37 963.012 1394.69 962.75ZM1393.97 974H1398.03C1398.05 974.699 1398.07 975.371 1398.13 976H1393.85C1393.91 975.371 1393.95 974.699 1393.97 974ZM1389.5 978H1402.5C1403.97 978 1405 978.977 1405 980C1405 981.023 1403.97 982 1402.5 982H1389.5C1388.03 982 1387 981.023 1387 980C1387 978.977 1388.03 978 1389.5 978ZM1391.35 984H1400.66C1401.9 985.922 1403.35 987.113 1404.38 988.094C1405.12 988.797 1405.61 989.32 1405.85 990H1386.16C1386.39 989.324 1386.89 988.801 1387.63 988.094C1388.66 987.113 1390.1 985.93 1391.35 984ZM1384.35 992H1407.66C1409.01 992 1410 992.945 1410 994C1410 995.055 1409.01 996 1407.66 996H1384.35C1382.99 996 1382 995.055 1382 994C1382 992.945 1382.99 992 1384.35 992ZM1384 997.969C1384.12 997.977 1384.23 998 1384.35 998H1407.66C1407.78 998 1407.89 997.977 1408 997.969C1409.49 999.359 1410.6 1000.98 1410.91 1002C1411.07 1002.52 1411 1002.8 1410.97 1002.84C1410.94 1002.89 1410.87 1003 1410.28 1003H1381.72C1381.14 1003 1381.06 1002.89 1381.03 1002.84C1381.01 1002.8 1380.94 1002.52 1381.1 1002C1381.4 1000.98 1382.52 999.359 1384 997.969Z" fill="#457B9D" fill-opacity="0.3"/>
<g clip-path="url(#clip2)">
<path d="M1379.91 527C1379.54 527 1378.83 527.051 1377.89 527.289C1376.96 527.527 1375.83 527.945 1374.82 528.738C1373.81 529.531 1372.95 530.734 1372.65 532.352C1372.36 533.949 1372.62 535.906 1373.61 538.312L1379.27 555.406C1378.75 554.965 1378.18 554.582 1377.52 554.359C1377.52 554.355 1377.52 554.355 1377.52 554.355C1376.04 553.855 1374.42 554 1373.05 554.762C1373.03 554.773 1373.01 554.789 1372.98 554.801L1366.45 559.168C1366.03 559.449 1365.88 559.996 1366.11 560.449L1367.11 562.449C1367.23 562.691 1367.44 562.875 1367.7 562.953C1367.96 563.035 1368.25 563.008 1368.48 562.875L1375.29 559.125C1375.43 559.051 1375.54 559.039 1375.69 559.09C1375.84 559.141 1375.91 559.203 1376 559.387L1377.14 563.309C1377.67 565.555 1379.69 567.141 1382 567.141C1382.17 567.141 1382.34 567.133 1382.5 567.117C1385.06 566.863 1387 564.609 1387 562C1387 561.465 1386.9 560.934 1386.71 560.43L1378.8 535.75L1378.79 535.742C1378.79 535.723 1378.78 535.699 1378.77 535.68C1378.77 535.668 1378.77 535.66 1378.76 535.648C1378.57 535.109 1378.71 535.062 1378.71 535.043C1378.82 535.141 1379.01 535.34 1379.18 535.832C1379.18 535.84 1379.19 535.844 1379.19 535.852C1380 537.992 1390.31 565.125 1390.31 565.125C1390.37 565.34 1391.22 568.117 1393.25 570.965C1395.36 573.926 1398.86 577 1404 577C1407.09 577 1409.67 575.637 1411.39 573.582C1413.11 571.527 1414.03 568.801 1414 565.988C1414 565.48 1413.96 564.953 1413.88 564.418C1413.88 564.41 1413.88 564.402 1413.87 564.395C1413.7 563.281 1413.12 561.855 1412.37 560.125C1411.63 558.391 1410.7 556.414 1409.8 554.465C1408.9 552.512 1408.03 550.594 1407.41 549.012C1406.8 547.43 1406.5 546.063 1406.52 545.832C1406.52 545.789 1406.52 545.75 1406.52 545.707C1406.48 544.559 1406.73 544.016 1407.03 543.672C1407.33 543.332 1407.78 543.125 1408.36 542.965C1409.07 542.77 1409.63 542.535 1410.09 542.215C1410.55 541.895 1410.95 541.422 1411 540.781C1411.04 540.145 1410.66 539.598 1410.25 539.277C1409.84 538.953 1409.34 538.75 1408.75 538.594C1406.9 538.113 1396.7 534.734 1395.21 534.227C1395.21 534.227 1395.21 534.227 1395.2 534.227C1394.73 534.07 1394.25 533.984 1393.78 534C1393.3 534.02 1392.74 534.129 1392.32 534.648C1391.91 535.172 1391.96 535.934 1392.21 536.477C1392.47 537.016 1392.89 537.52 1393.53 538.121C1394.57 539.09 1394.77 539.996 1394.89 541.316C1395.02 542.637 1394.99 544.301 1395.64 546.191C1395.82 546.832 1396.21 547.75 1396.78 549.035C1397.36 550.34 1398.1 551.953 1398.89 553.68C1400.46 557.133 1402.24 561.066 1403.32 563.875C1403.32 563.879 1403.32 563.887 1403.33 563.895C1403.73 564.898 1403.99 565.703 1404 566.156C1404.01 566.605 1404.02 566.656 1403.56 566.91C1403.2 567.109 1403.08 567.055 1402.68 566.746C1402.28 566.437 1401.83 565.828 1401.53 565.281C1401.52 565.242 1398.44 558.371 1396.18 553.305C1396.51 552.797 1396.77 552.145 1396.43 551.578C1396.16 551.148 1395.62 550.965 1395.1 550.887C1394.35 549.215 1394.24 548.969 1393.47 547.23C1393.77 546.73 1393.99 546.109 1393.66 545.574C1393.42 545.168 1392.91 544.984 1392.43 544.898C1391.65 543.16 1391.46 542.746 1390.77 541.18C1391.05 540.691 1391.25 540.098 1390.93 539.578C1390.7 539.188 1390.22 539.004 1389.75 538.91C1388.48 536.055 1386.67 532.02 1386.33 531.258C1385.17 528.664 1382.62 527 1379.91 527ZM1379.91 529C1381.79 529 1383.67 530.199 1384.5 532.07C1384.81 532.766 1386.51 536.559 1387.61 539.035C1387.44 539.09 1387.26 539.148 1387.09 539.23C1385.77 539.863 1385.64 540.941 1386.14 541.961C1386.62 542.98 1387.53 543.566 1388.86 542.926C1388.99 542.863 1389.12 542.777 1389.25 542.691C1389.71 543.711 1389.82 543.957 1390.3 545.047C1390.14 545.098 1389.97 545.152 1389.82 545.223C1388.5 545.859 1388.37 546.934 1388.86 547.953C1389.35 548.977 1390.26 549.559 1391.59 548.922C1391.71 548.863 1391.82 548.781 1391.94 548.711C1392.44 549.836 1392.5 549.977 1393 551.074C1392.86 551.121 1392.71 551.164 1392.58 551.227C1391.26 551.863 1391.13 552.938 1391.62 553.957C1392.11 554.98 1393.02 555.562 1394.35 554.922C1394.45 554.879 1394.54 554.809 1394.64 554.75C1396.74 559.449 1399.73 566.156 1399.73 566.156C1399.74 566.18 1399.75 566.203 1399.77 566.223C1400.15 566.93 1400.69 567.734 1401.46 568.328C1402.23 568.922 1403.46 569.254 1404.53 568.656C1405.5 568.117 1406.03 567.066 1406 566.094C1405.97 565.125 1405.61 564.195 1405.18 563.141C1404.06 560.23 1402.28 556.301 1400.7 552.848C1399.92 551.121 1399.18 549.512 1398.61 548.23C1398.05 546.945 1397.64 545.918 1397.55 545.621C1397.55 545.598 1397.54 545.578 1397.54 545.562C1397.01 544.027 1397.03 542.613 1396.89 541.125C1396.74 539.641 1396.35 538.016 1394.9 536.66C1394.9 536.66 1394.9 536.66 1394.9 536.66C1394.61 536.391 1394.57 536.285 1394.43 536.102C1394.48 536.113 1394.52 536.105 1394.57 536.125C1396.12 536.648 1405.97 539.938 1408.25 540.531C1408.46 540.586 1408.52 540.641 1408.65 540.699C1408.45 540.805 1408.25 540.922 1407.83 541.035C1407.08 541.242 1406.2 541.582 1405.52 542.359C1404.86 543.121 1404.5 544.246 1404.54 545.688C1404.44 546.863 1404.91 548.102 1405.55 549.738C1406.2 551.402 1407.08 553.344 1407.98 555.301C1408.89 557.258 1409.81 559.23 1410.54 560.918C1411.27 562.605 1411.8 564.055 1411.9 564.715C1411.96 565.164 1412 565.594 1412 566.012C1412.02 568.371 1411.24 570.645 1409.86 572.297C1408.47 573.949 1406.52 575 1404 575C1399.64 575 1396.77 572.461 1394.87 569.805C1392.98 567.148 1392.21 564.492 1392.21 564.492C1392.2 564.465 1392.19 564.441 1392.18 564.418C1392.18 564.418 1381.89 537.332 1381.07 535.156C1380.78 534.355 1380.39 533.754 1379.85 533.355C1379.32 532.957 1378.59 532.82 1377.98 533.055C1376.82 533.5 1376.43 534.867 1376.83 536.164C1376.84 536.207 1376.85 536.25 1376.87 536.289L1376.88 536.324L1384.83 561.086C1384.83 561.102 1384.84 561.117 1384.84 561.133C1384.95 561.41 1385 561.699 1385 562C1385 563.609 1383.79 564.98 1382.31 565.125H1382.3C1382.2 565.137 1382.1 565.141 1382 565.141C1380.59 565.141 1379.41 564.211 1379.08 562.844C1379.08 562.828 1379.07 562.812 1379.07 562.797L1377.88 558.719C1377.87 558.68 1377.86 558.645 1377.84 558.605C1377.56 557.957 1377.01 557.426 1376.34 557.199C1376.34 557.195 1376.34 557.195 1376.34 557.195C1375.68 556.969 1374.93 557.035 1374.32 557.375L1368.43 560.625L1368.29 560.344L1374.04 556.504C1374.9 556.027 1375.94 555.934 1376.87 556.25C1377.8 556.566 1378.55 557.27 1378.95 558.172L1380.01 561.508L1379.98 561.371C1380.09 562.027 1380.52 562.551 1380.92 562.773C1381.32 562.996 1381.75 563 1381.75 563C1382.11 563 1382.48 562.84 1382.71 562.629C1382.95 562.418 1383.06 562.188 1383.13 562C1383.2 561.809 1383.23 561.645 1383.25 561.504C1383.26 561.434 1383.27 561.367 1383.27 561.297C1383.27 561.23 1383.34 561.285 1383.2 560.898L1375.53 537.754C1375.52 537.707 1375.5 537.66 1375.48 537.613C1374.57 535.418 1374.42 533.832 1374.62 532.703C1374.82 531.578 1375.36 530.859 1376.06 530.312C1376.76 529.762 1377.63 529.418 1378.38 529.227C1379.14 529.039 1379.81 529 1379.91 529ZM1403.6 551.004C1403.21 550.98 1402.82 551.098 1402.51 551.371C1401.89 551.918 1401.82 552.863 1402.36 553.484C1402.91 554.109 1403.87 554.176 1404.49 553.629C1405.11 553.086 1405.18 552.133 1404.63 551.512C1404.36 551.199 1403.98 551.027 1403.6 551.004ZM1405.6 555.004C1405.21 554.98 1404.82 555.098 1404.51 555.371C1403.89 555.918 1403.82 556.863 1404.36 557.484C1404.91 558.109 1405.87 558.176 1406.49 557.629C1407.11 557.086 1407.18 556.133 1406.63 555.512C1406.36 555.199 1405.98 555.027 1405.6 555.004ZM1407.6 559.004C1407.21 558.977 1406.82 559.098 1406.51 559.371C1405.89 559.918 1405.82 560.867 1406.37 561.488C1406.91 562.109 1407.86 562.176 1408.48 561.629C1409.11 561.086 1409.18 560.137 1408.63 559.512C1408.36 559.199 1407.98 559.031 1407.6 559.004Z" fill="#457B9D" fill-opacity="0.3"/>
</g>
<g clip-path="url(#clip3)">
<path d="M916.212 973.07C915.195 972.905 914.55 973.411 913.932 973.88C913.553 974.17 913.058 974.678 912.245 975.348C911.432 976.017 910.379 976.813 909.214 977.536C906.884 978.978 904.125 980.013 901.774 979.34L895.044 977.415L895.869 974.531C896.214 974.633 896.588 974.546 896.851 974.296C897.11 974.045 897.215 973.677 897.128 973.327C897.037 972.976 896.766 972.703 896.419 972.608L894.497 972.058C894.467 972.049 894.436 972.041 894.406 972.032C894.376 972.024 894.346 972.015 894.316 972.006C893.773 971.904 893.247 972.265 893.144 972.809C893.042 973.352 893.403 973.878 893.946 973.981L893.121 976.865L890.237 976.04L891.062 973.156C891.407 973.258 891.781 973.17 892.044 972.92C892.302 972.669 892.408 972.301 892.321 971.951C892.23 971.601 891.959 971.328 891.612 971.233L889.689 970.683C889.659 970.674 889.629 970.666 889.599 970.657C889.569 970.648 889.539 970.64 889.509 970.631C888.966 970.528 888.44 970.89 888.337 971.433C888.234 971.977 888.596 972.503 889.139 972.606L888.314 975.49L885.43 974.665L886.255 971.78C886.599 971.883 886.974 971.795 887.236 971.545C887.495 971.294 887.6 970.926 887.514 970.576C887.423 970.225 887.152 969.953 886.805 969.858L884.882 969.307C884.852 969.299 884.822 969.29 884.792 969.282C884.762 969.273 884.732 969.265 884.702 969.256C884.158 969.153 883.633 969.515 883.53 970.058C883.427 970.602 883.789 971.128 884.332 971.23L883.507 974.115L871.91 970.797C871.996 969.643 871.269 968.533 870.116 968.204C868.802 967.828 867.401 968.605 867.025 969.92L865.925 973.765C865.549 975.08 866.327 976.481 867.641 976.857C868.794 977.186 869.998 976.629 870.535 975.604L874.26 976.67C872.718 978.057 871.441 980.048 870.644 982.721C870.619 982.779 870.602 982.839 870.592 982.901C870.584 982.931 870.575 982.961 870.566 982.992C869.532 986.677 869.775 990.147 871.443 992.993C873.125 995.863 876.195 998.026 880.477 999.251L886.537 1001.02L886.567 1001.03C892.749 1002.79 899.209 999.214 901.083 992.664C901.661 990.644 901.568 988.484 900.836 986.483C902.605 987.387 903.992 989.198 905.015 991.189C906.224 993.542 906.892 995.963 907.288 997.105C907.479 997.659 907.672 998.108 908.001 998.479C908.329 998.849 908.926 999.178 909.52 999.076C910.114 998.973 910.488 998.589 910.748 998.192C911.008 997.795 911.191 997.323 911.349 996.771L917.332 975.86C917.506 975.252 917.591 974.74 917.448 974.203C917.305 973.667 916.72 973.154 916.212 973.07ZM915.4 975.34L909.426 996.221C909.366 996.432 909.329 996.518 909.267 996.663C909.228 996.575 909.2 996.587 909.16 996.47C908.834 995.536 908.125 992.887 906.797 990.301C905.469 987.715 903.486 985.031 900.399 984.148L883.093 979.197C879.957 978.3 875.591 980.325 874.214 984.783C874.19 984.841 874.173 984.901 874.163 984.963C874.154 984.993 874.146 985.023 874.137 985.053C873.617 986.944 873.769 988.625 874.38 989.998C875 991.395 876.048 992.462 877.152 993.261C877.886 993.792 878.656 994.212 879.384 994.55C879.766 994.789 880.161 995 880.615 995.13C880.677 995.143 880.74 995.149 880.804 995.151C881.611 995.443 882.287 995.608 882.538 995.68L886.384 996.78C886.613 996.846 886.829 996.887 887.054 996.939C887.144 996.993 887.242 997.034 887.345 997.055C887.774 997.178 888.2 997.222 888.629 997.227C890.754 997.453 892.503 997.035 893.836 996.182C895.613 995.04 896.599 993.226 897.087 991.521C897.589 989.767 897.372 987.686 896.445 985.812C896.301 985.519 896.123 985.232 895.943 984.953L898.196 985.598C899.457 987.64 899.773 989.973 899.16 992.114C897.564 997.695 892.274 1000.58 887.117 999.103L881.027 997.328C877.095 996.203 874.557 994.335 873.19 991.998C871.841 989.698 871.571 986.866 872.472 983.602C872.49 983.554 872.505 983.501 872.515 983.451C872.524 983.421 872.532 983.391 872.541 983.361C873.629 979.642 875.538 977.726 877.737 976.787C879.954 975.841 882.563 975.925 884.88 976.588L901.224 981.263C904.458 982.188 907.708 980.81 910.256 979.232C911.53 978.442 912.642 977.582 913.498 976.876C914.354 976.17 915.044 975.563 915.168 975.469L915.177 975.439C915.29 975.357 915.284 975.392 915.4 975.34ZM869.566 970.127C869.84 970.205 869.988 970.471 869.909 970.745L869.858 970.925C869.748 971.097 869.692 971.292 869.695 971.496L869.033 973.809C868.923 973.981 868.867 974.176 868.869 974.38L868.809 974.59C868.731 974.865 868.465 975.012 868.191 974.934C867.917 974.855 867.769 974.59 867.848 974.315L868.948 970.47C869.026 970.196 869.292 970.048 869.566 970.127ZM871.42 972.737L877.909 974.594C877.592 974.694 877.276 974.806 876.965 974.941C876.779 975.022 876.588 975.109 876.403 975.203L871.145 973.698L871.42 972.737ZM883.505 981.395L886.389 982.22L885.289 986.066L883.366 985.516C883.035 985.421 882.709 985.356 882.379 985.331L883.505 981.395ZM888.312 982.77L890.836 983.492C890.959 983.527 891.069 983.583 891.187 983.625L890.096 987.441L887.212 986.616L888.312 982.77ZM881.53 981.025L880.207 985.652C880.203 985.663 880.201 985.671 880.198 985.682C878.794 986.231 877.628 987.393 877.184 988.947C877.042 989.443 877.006 989.937 877.02 990.428C876.709 990.051 876.433 989.639 876.235 989.196C875.814 988.251 875.656 987.129 876.043 985.663C876.061 985.616 876.076 985.563 876.086 985.513C876.094 985.483 876.103 985.453 876.112 985.423C876.991 982.505 879.638 981.105 881.53 981.025ZM892.99 984.596C893.724 985.184 894.269 985.904 894.663 986.7C895.373 988.138 895.505 989.78 895.164 990.971C894.842 992.098 894.273 993.178 893.395 993.975C893.437 993.857 893.492 993.747 893.528 993.623C894.088 991.667 893.375 989.642 891.898 988.412L892.99 984.596ZM882.816 987.438L889.546 989.364C891.149 989.822 892.064 991.469 891.605 993.073C891.246 994.327 890.161 995.151 888.939 995.236C888.33 995.175 887.674 995.069 886.934 994.857L883.088 993.757C882.608 993.62 881.366 993.289 880.054 992.661C879.154 991.929 878.765 990.692 879.106 989.498C879.565 987.894 881.212 986.98 882.816 987.438Z" fill="#457B9D" fill-opacity="0.3"/>
</g>
<g clip-path="url(#clip4)">
<path d="M65.9062 786C65.832 786.012 65.7578 786.035 65.6875 786.063L54.5938 789.75C54.4258 789.805 54.2734 789.902 54.1562 790.031L30.75 815.656L25.7812 812.188C25.5898 812.051 25.3594 811.984 25.125 812C24.8906 812.016 24.668 812.117 24.5 812.281L22 814.688C21.6133 815.078 21.6133 815.703 22 816.094L26.4375 820.531L21.3125 827.031C18.9258 827.133 17 829.09 17 831.5C17 833.973 19.0273 836 21.5 836C23.9102 836 25.8672 834.074 25.9688 831.688L32.4688 826.563L36.9062 831C37.2969 831.387 37.9219 831.387 38.3125 831L40.7188 828.5C41.0547 828.152 41.0977 827.613 40.8125 827.219L37.3438 822.25L62.9688 798.844C63.0977 798.727 63.1953 798.574 63.25 798.406L66.9375 787.313C67.043 786.992 66.9844 786.645 66.7734 786.379C66.5664 786.113 66.2422 785.973 65.9062 786ZM64.4375 788.563L61.4062 797.563L36.1562 820.594L34.7188 818.531C34.6523 818.434 34.5664 818.348 34.4688 818.281L32.4062 816.844L55.4375 791.594L64.4375 788.563ZM25.3125 814.281L30.1562 817.688C30.2656 817.813 30.4062 817.91 30.5625 817.969L33.1875 819.813L35.0625 822.5C35.1211 822.633 35.207 822.75 35.3125 822.844L38.7188 827.688L37.5938 828.875L24.125 815.406L25.3125 814.281ZM27.875 821.969L31.0312 825.125L25.5 829.5C25.0625 828.637 24.3633 827.938 23.5 827.5L27.875 821.969ZM21.5 829C22.8906 829 24 830.109 24 831.5C24 832.891 22.8906 834 21.5 834C20.1094 834 19 832.891 19 831.5C19 830.109 20.1094 829 21.5 829Z" fill="#457B9D" fill-opacity="0.3"/>
</g>
<g clip-path="url(#clip5)">
<path d="M26.2328 642.739C26.0584 642.835 25.8863 642.961 25.7258 643.134C25.3975 643.475 25.2261 644.038 25.2887 644.517C25.3479 644.998 25.563 645.414 25.871 645.848C26.48 646.711 27.2091 647.633 28.1189 648.673C25.0218 648.141 21.9157 648.255 18.9869 648.981C18.6497 649.062 18.2933 649.148 17.9666 649.316C17.6418 649.487 17.3448 649.736 17.1196 650.155C16.8979 650.572 16.8958 651.129 17.0604 651.559C17.2233 651.986 17.4929 652.338 17.859 652.706C20.7768 655.646 25.6297 657.725 29.6243 658.962C30.2153 659.145 31.1047 659.392 32.0006 659.617L22.4176 664.667C22.1723 664.796 22.0791 665.097 22.2084 665.342L22.6746 666.227C22.8039 666.472 23.1046 666.566 23.35 666.436L28.4024 663.774L37.5942 685.944C37.5942 685.944 37.7578 686.405 38.2161 686.755C38.6691 687.104 39.5548 687.26 40.3122 686.887C40.3191 686.883 40.3295 686.878 40.3364 686.874L65.1078 673.821C65.1181 673.816 65.132 673.809 65.1423 673.803C65.8708 673.384 66.2344 672.574 66.203 672.004C66.1751 671.431 65.8958 671.035 65.8958 671.035L65.8976 671.039L52.8005 650.918L57.8529 648.255C58.0983 648.126 58.1915 647.825 58.0622 647.58L57.596 646.695C57.4667 646.45 57.166 646.357 56.9206 646.486L48.9791 650.671C47.2343 649.806 45.4997 649.581 43.9697 649.694C42.6593 648.305 41.1648 647.053 39.4752 645.991C35.871 643.718 31.8637 642.54 27.8711 642.463C27.5127 642.453 27.137 642.452 26.772 642.539C26.5893 642.577 26.4072 642.643 26.2328 642.739ZM27.3973 644.496C27.493 644.477 27.5204 644.453 27.8334 644.461C31.4588 644.529 35.1056 645.601 38.4105 647.683C39.5794 648.418 40.6421 649.253 41.6102 650.16C41.1888 650.307 40.7937 650.463 40.4585 650.639C39.4978 651.145 38.6632 651.749 37.9203 652.392C35.9188 651.208 33.7197 650.26 31.7189 649.597C29.6868 647.551 28.4702 646.055 27.5027 644.688C27.4181 644.569 27.4321 644.571 27.3973 644.496ZM19.0762 651.036C19.1369 651.017 19.1384 651.003 19.4651 650.919C22.9867 650.052 26.7873 650.143 30.518 651.298C30.5972 651.323 30.6818 651.358 30.7609 651.382C30.821 651.413 30.8896 651.434 30.958 651.446C30.9598 651.45 30.9616 651.453 30.9651 651.451C32.7194 652.024 34.6643 652.849 36.4364 653.849C36.3664 653.926 36.2824 654.001 36.2142 654.081C35.9666 654.348 35.8838 654.728 35.9995 655.073C36.1117 655.42 36.4055 655.676 36.7634 655.743C37.1213 655.811 37.4854 655.681 37.7205 655.398C38.7133 654.265 39.8979 653.195 41.3908 652.409C42.4276 651.862 44.4442 651.382 46.598 651.925L34.7515 658.168C33.5923 657.971 31.2767 657.38 30.2161 657.052C26.4062 655.872 21.7273 653.763 19.2792 651.295C19.1381 651.153 19.1321 651.117 19.0762 651.036ZM30.1787 662.838L35.2277 660.178C35.3614 660.138 35.4858 660.072 35.594 659.985L51.0242 651.854L53.7595 656.064L32.1053 667.475L30.1787 662.838ZM32.8717 669.331L54.8577 657.746L64.172 672.054L64.1738 672.057C64.1565 672.066 64.172 672.054 64.1409 672.07L39.4283 685.092C39.4041 685.105 39.4232 685.099 39.4093 685.107L39.4075 685.103L32.8717 669.331Z" fill="#457B9D" fill-opacity="0.3"/>
</g>
<path d="M28.1167 485.2C27.6226 484.965 27.0334 485.172 26.7919 485.662L26.3502 486.559L25.453 486.118C25.1323 485.955 24.7481 485.975 24.4454 486.175C24.1462 486.376 23.9771 486.719 24.0003 487.079C24.0269 487.44 24.2455 487.757 24.5697 487.912L22.8029 491.501L21.9058 491.059C21.8882 491.05 21.8672 491.04 21.8497 491.031C21.8462 491.03 21.8462 491.03 21.8427 491.028C21.3575 490.828 20.7963 491.04 20.5634 491.513C20.327 491.984 20.5017 492.558 20.9593 492.822C20.9804 492.833 21.0014 492.843 21.0224 492.853L21.082 492.883C21.0855 492.884 21.208 492.927 21.3318 493.162C21.4572 493.394 21.6086 493.865 21.0758 494.991C21.0291 495.069 20.9911 495.146 20.9672 495.23L16.1777 504.958C15.857 504.796 15.4728 504.816 15.1701 505.015C14.8708 505.216 14.7017 505.56 14.7249 505.919C14.7516 506.281 14.9702 506.597 15.2943 506.753L8.22743 521.107C7.98416 521.602 8.18877 522.203 8.68292 522.446L20.3462 528.188C20.8403 528.431 21.4417 528.227 21.685 527.733L28.7519 513.378C29.0726 513.54 29.4568 513.52 29.7596 513.321C30.0588 513.12 30.2279 512.777 30.2047 512.417C30.178 512.055 29.9594 511.739 29.6353 511.584C30.5394 509.747 32.425 508.721 34.3489 508.801L35.4186 506.628L31.8299 504.862C31.3322 504.617 30.7343 504.823 30.491 505.317L27.841 510.7L17.9721 505.842L22.3889 496.87L54.6731 512.764C54.0019 514.127 52.2265 517.724 50.2457 521.73L40.4014 516.884L43.0515 511.501C43.2947 511.007 43.0936 510.407 42.596 510.162L39.0073 508.395L37.9376 510.568C39.1748 512.044 39.5111 514.164 38.607 516C38.2863 515.838 37.9021 515.858 37.5994 516.057C37.3001 516.258 37.1311 516.602 37.1542 516.961C37.1809 517.323 37.3995 517.639 37.7237 517.795L30.6567 532.149C30.4135 532.644 30.6181 533.245 31.1122 533.488L42.7299 539.208C43.2241 539.451 43.8203 539.248 44.0688 538.752C44.0688 538.752 47.7869 531.217 51.1601 524.392C51.6274 524.531 52.1239 524.309 52.3379 523.875C52.557 523.438 52.4245 522.912 52.0297 522.626C54.2382 518.157 56.2604 514.068 56.8056 512.96C56.8923 512.855 56.9544 512.737 56.9973 512.606C57.505 511.646 57.9563 511.463 58.2564 511.402C58.5775 511.342 58.7317 511.418 58.7317 511.418C58.7527 511.428 58.7737 511.439 58.793 511.444C58.7965 511.445 58.7965 511.445 58.7965 511.445C58.8263 511.456 58.8595 511.468 58.8893 511.478C58.8945 511.476 58.8945 511.476 58.8945 511.476C58.9243 511.487 58.9558 511.493 58.989 511.497C59.1849 511.532 59.3891 511.506 59.5738 511.423C59.5738 511.423 59.5738 511.423 59.579 511.421C59.9169 511.266 60.142 510.932 60.1571 510.557C60.1571 510.557 60.1571 510.557 60.1589 510.553C60.1604 510.523 60.1602 510.488 60.1583 510.457C60.1583 510.457 60.1583 510.457 60.16 510.453C60.1448 510.254 60.0737 510.063 59.9487 509.901C59.9434 509.894 59.9381 509.887 59.9328 509.88C59.917 509.859 59.9029 509.844 59.8853 509.826C59.8818 509.825 59.88 509.819 59.8765 509.818C59.8326 509.774 59.7834 509.733 59.736 509.696C59.7325 509.694 59.729 509.693 59.722 509.689C59.6992 509.674 59.6764 509.658 59.6501 509.641L59.6466 509.639C59.6256 509.629 59.608 509.62 59.587 509.61L58.6863 509.166L60.4566 505.579C60.7773 505.742 61.1615 505.722 61.4642 505.522C61.7635 505.321 61.9325 504.978 61.9093 504.618C61.8827 504.257 61.6641 503.94 61.3399 503.785L60.4428 503.343L60.8844 502.446C61.0639 502.082 61.007 501.649 60.7379 501.346C60.4705 501.041 60.047 500.928 59.6652 501.058L57.9341 501.647L57.3452 499.916C57.1673 499.393 56.5995 499.113 56.0765 499.291L54.3454 499.88L53.7565 498.149C53.5786 497.626 53.0108 497.346 52.4878 497.524L50.7567 498.113L50.1678 496.382C49.9899 495.859 49.4221 495.58 48.8992 495.758L47.1681 496.347L46.5791 494.616C46.4012 494.093 45.8335 493.813 45.3105 493.991L43.5794 494.58L42.9904 492.849C42.8125 492.326 42.2448 492.046 41.7218 492.224L39.9907 492.813L39.4017 491.082C39.2238 490.559 38.6561 490.28 38.1331 490.457L36.402 491.046L35.8131 489.315C35.6351 488.792 35.0674 488.513 34.5444 488.691L32.8133 489.28L32.2244 487.549C32.0464 487.026 31.4787 486.746 30.9557 486.924L29.2246 487.513L28.6357 485.782C28.5485 485.526 28.3603 485.315 28.1167 485.2ZM26.4972 488.861L58.5361 504.634C58.5712 504.66 58.6115 504.684 58.6588 504.703L56.892 508.283L24.5973 492.384L26.3588 488.806C26.4044 488.828 26.4517 488.847 26.4972 488.861ZM28.6139 491.018C28.1197 490.774 27.5183 490.979 27.275 491.473C27.0317 491.967 27.2363 492.569 27.7305 492.812C28.2246 493.055 28.8261 492.851 29.0693 492.356C29.3126 491.862 29.108 491.261 28.6139 491.018ZM33.0997 493.226C32.6056 492.983 32.0041 493.187 31.7609 493.682C31.5176 494.176 31.7222 494.777 32.2164 495.02C32.7105 495.264 33.3119 495.059 33.5552 494.565C33.7985 494.071 33.5939 493.469 33.0997 493.226ZM37.5856 495.434C37.0914 495.191 36.49 495.396 36.2467 495.89C36.0035 496.384 36.2081 496.986 36.7022 497.229C37.1964 497.472 37.7978 497.267 38.0411 496.773C38.2843 496.279 38.0797 495.678 37.5856 495.434ZM42.0714 497.643C41.5773 497.4 40.9759 497.604 40.7326 498.098C40.4893 498.593 40.6939 499.194 41.1881 499.437C41.6822 499.68 42.2837 499.476 42.5269 498.982C42.7702 498.488 42.5656 497.886 42.0714 497.643ZM46.5573 499.851C46.0632 499.608 45.4617 499.813 45.2184 500.307C44.9752 500.801 45.1798 501.402 45.6739 501.646C46.1681 501.889 46.7695 501.684 47.0128 501.19C47.2561 500.696 47.0514 500.095 46.5573 499.851ZM51.0432 502.06C50.549 501.816 49.9476 502.021 49.7043 502.515C49.461 503.009 49.6657 503.611 50.1598 503.854C50.6539 504.097 51.2554 503.893 51.4987 503.399C51.7419 502.904 51.5373 502.303 51.0432 502.06ZM55.529 504.268C55.0349 504.025 54.4334 504.229 54.1902 504.724C53.9469 505.218 54.1515 505.819 54.6457 506.062C55.1398 506.306 55.7412 506.101 55.9845 505.607C56.2278 505.113 56.0232 504.511 55.529 504.268ZM23.402 494.025L56.3486 510.245C56.1036 510.459 55.8675 510.709 55.6405 511.011L23.1986 495.039C23.31 494.681 23.3708 494.345 23.402 494.025ZM36.7574 506.173L35.4324 508.864L37.2267 509.748L38.5518 507.056L36.7574 506.173ZM23.7553 500.887C23.2612 500.643 22.6598 500.848 22.4165 501.342L21.0914 504.034C20.8482 504.528 21.0528 505.129 21.5469 505.372L26.0328 507.581C26.5269 507.824 27.1284 507.619 27.3717 507.125L28.6967 504.434C28.94 503.94 28.7354 503.338 28.2412 503.095L23.7553 500.887ZM46.1847 511.929C45.6905 511.685 45.0891 511.89 44.8458 512.384L43.5208 515.076C43.2775 515.57 43.4821 516.171 43.9762 516.414L48.4621 518.623C48.9563 518.866 49.5577 518.662 49.801 518.167L51.126 515.476C51.3693 514.982 51.1647 514.38 50.6705 514.137L46.1847 511.929ZM23.7692 503.123L26.4607 504.448L26.019 505.345L23.3275 504.02L23.7692 503.123ZM46.1985 514.165L48.89 515.49L48.4483 516.387L45.7568 515.062L46.1985 514.165ZM17.0887 507.636L26.9576 512.495L20.3324 525.952L17.6408 524.627L18.5242 522.833C18.7888 522.967 19.0981 522.976 19.3682 522.861C19.6382 522.745 19.8464 522.517 19.9321 522.237L20.988 520.092C21.7971 518.449 22.2039 516.986 22.2101 515.726C22.2163 514.466 21.7495 513.274 20.6981 512.757C19.6327 512.232 18.4035 512.615 17.4125 513.39C16.4198 514.169 15.5049 515.381 14.7078 517L13.657 519.135C13.4821 519.375 13.4228 519.681 13.498 519.971C13.5714 520.255 13.7703 520.497 14.0383 520.624L13.155 522.419L10.4635 521.094L17.0887 507.636ZM39.518 518.678L49.3589 523.523C46.3084 529.701 43.1129 536.166 42.7161 536.972L40.0701 535.669L40.9535 533.875C41.2181 534.009 41.5274 534.018 41.7975 533.903C42.0675 533.788 42.2758 533.559 42.3614 533.279L43.4173 531.134C44.2264 529.491 44.6332 528.028 44.6394 526.768C44.6456 525.508 44.1788 524.316 43.1274 523.799C42.062 523.274 40.8328 523.658 39.8418 524.432C38.8491 525.211 37.9342 526.423 37.1371 528.043L36.0863 530.177C35.9114 530.417 35.8521 530.723 35.9273 531.013C36.0007 531.297 36.1996 531.539 36.4676 531.666L35.5843 533.461L32.8928 532.136L39.518 518.678ZM19.8147 514.551C20.0005 514.643 20.2134 514.9 20.2115 515.717C20.2078 516.53 19.9079 517.758 19.1936 519.209L18.5104 520.597L15.8189 519.272L16.5021 517.884C17.2026 516.461 17.9931 515.474 18.6433 514.967C19.2953 514.457 19.643 514.467 19.8147 514.551ZM42.244 525.593C42.4298 525.685 42.6427 525.942 42.6408 526.759C42.6371 527.572 42.3372 528.8 41.6229 530.251L40.9397 531.639L38.2482 530.314L38.9314 528.926C39.6319 527.503 40.4224 526.516 41.0726 526.009C41.7246 525.499 42.0723 525.509 42.244 525.593ZM15.8327 521.508L16.7299 521.949L15.8465 523.744L14.9493 523.302L15.8327 521.508ZM38.262 532.55L39.1592 532.991L38.2758 534.786L37.3786 534.344L38.262 532.55Z" fill="#457B9D" fill-opacity="0.3"/>
<ellipse cx="1221.59" cy="155.099" rx="329.949" ry="429.598" transform="rotate(28.4072 1221.59 155.099)" fill="#F1FAEE" fill-opacity="0.1"/>
<ellipse cx="1243.09" cy="96.0987" rx="337.902" ry="432.762" transform="rotate(28.4072 1243.09 96.0987)" fill="#457B9D"/>
<path d="M0 846L120.378 1053.75H-120.378L0 846Z" fill="#457B9D"/>
<g clip-path="url(#clip6)">
<path d="M5.67923 132.386C5.43181 132.482 5.23247 132.671 5.12504 132.914C5.01761 133.156 5.01088 133.432 5.10635 133.679L15.5479 160.734L14.615 161.094C14.3676 161.19 14.1682 161.379 14.0608 161.622C13.9534 161.864 13.9467 162.14 14.0421 162.387L14.7622 164.253C15.2872 165.613 16.3492 166.396 17.3553 166.665C18.3614 166.933 19.2703 166.801 19.9342 166.544L59.1173 151.422C60.125 151.033 61.022 150.496 61.498 149.557C61.974 148.618 61.8838 147.481 61.4088 146.25L60.6887 144.384C60.5932 144.137 60.4033 143.938 60.1608 143.83C59.9183 143.723 59.6431 143.716 59.3957 143.811L58.4628 144.172L48.0212 117.116C47.9257 116.869 47.7358 116.67 47.4933 116.562C47.2508 116.455 46.9756 116.448 46.7282 116.544L5.67923 132.386ZM7.33227 133.892L46.5154 118.77L56.5969 144.892L42.7596 150.232C42.6007 150.264 42.452 150.335 42.3264 150.437C42.2007 150.54 42.1018 150.671 42.0383 150.82C42.0372 150.823 42.036 150.825 42.0349 150.828C42.0323 150.834 42.0297 150.84 42.0271 150.845C41.928 151.083 41.9245 151.35 42.0173 151.59L32.7135 155.181C32.6651 155.055 32.5918 154.941 32.498 154.844C32.4043 154.748 32.292 154.671 32.1679 154.619C32.1671 154.619 32.1663 154.618 32.1654 154.618C32.1629 154.617 32.1604 154.616 32.1578 154.615C32.1545 154.613 32.1511 154.612 32.1477 154.61C31.905 154.509 31.6321 154.507 31.3883 154.606C31.3434 154.624 31.3 154.646 31.2583 154.671L17.4138 160.014L7.33227 133.892ZM31.6508 131.89C31.0338 132.236 30.4313 132.896 30.1809 133.636C29.9304 134.376 29.903 135.137 30.3416 135.718C31.0879 135.43 31.597 134.805 31.8474 134.065C32.0405 133.454 32.0321 132.601 31.6508 131.89ZM28.3828 136.474C27.4499 136.834 26.7343 137.755 26.4413 138.94C26.0484 140.699 27.2423 143.24 29.4698 144.845C30.2603 145.505 31.2363 146.092 32.1692 145.732C33.0448 145.501 33.0161 144.869 34.1356 144.437C35.1259 143.947 35.5277 144.435 36.3674 144.111C37.207 143.787 37.5586 142.474 37.8303 141.512C37.8942 140.844 37.9725 140.491 38.0937 139.693C35.7172 139.646 34.2277 136.899 35.8481 134.987C34.907 134.493 33.8871 134.35 33.0474 134.674C31.9279 135.106 31.6781 135.847 30.9317 136.135C30.1854 136.423 29.3157 136.114 28.3828 136.474ZM16.268 162.6L31.1949 156.839C31.2905 157.086 31.4803 157.286 31.7228 157.393C31.9653 157.501 32.2405 157.507 32.4879 157.412L43.6831 153.091C43.9305 152.996 44.1299 152.806 44.2373 152.563C44.3447 152.321 44.3514 152.046 44.256 151.798L59.1829 146.037L59.5429 146.97C59.9079 147.916 59.8585 148.371 59.7154 148.654C59.5722 148.936 59.19 149.25 58.3972 149.556L19.2141 164.679C18.9823 164.768 18.3712 164.865 17.8717 164.732C17.3723 164.599 16.9432 164.349 16.6281 163.533L16.268 162.6Z" fill="#457B9D" fill-opacity="0.3"/>
</g>
<path d="M298 27C285.309 27 275 37.3093 275 50C275 62.6907 285.309 73 298 73C310.691 73 321 62.6907 321 50C321 47.6361 320.641 45.3545 319.977 43.207C319.992 43.139 319.999 43.0696 320 43C320 42.8569 319.969 42.7156 319.909 42.5855C319.849 42.4555 319.763 42.3397 319.654 42.2461C316.468 33.3639 307.97 27 298 27ZM298 29C303.535 29 308 33.4655 308 39C308 44.5345 303.535 49 298 49C297.962 48.9998 297.924 49.0018 297.887 49.0059C291.324 49.0676 286 54.4228 286 61C286 64.0715 287.17 66.8691 289.076 68.9941C281.942 65.6409 277 58.4133 277 50C277 38.3902 286.39 29 298 29ZM306.924 31.0059C308.171 31.5921 309.347 32.2958 310.445 33.1055C310.307 33.0364 310.155 33.0003 310 33C309.735 33 309.48 33.1054 309.293 33.2929C309.105 33.4804 309 33.7348 309 34C309 34.2652 309.105 34.5196 309.293 34.7071C309.48 34.8946 309.735 35 310 35C310.265 35 310.52 34.8946 310.707 34.7071C310.895 34.5196 311 34.2652 311 34C311 33.7478 310.904 33.505 310.732 33.3203C312.778 34.8832 314.521 36.8096 315.875 39.0098C315.634 39.0402 315.412 39.1575 315.251 39.3398C315.09 39.522 315 39.7568 315 40C315 40.2652 315.105 40.5196 315.293 40.7071C315.48 40.8946 315.735 41 316 41C316.149 40.9997 316.296 40.9661 316.431 40.9016C316.565 40.837 316.684 40.7432 316.777 40.627C317.906 42.8869 318.657 45.3703 318.904 48.0059C318.657 48.0296 318.427 48.1446 318.26 48.3284C318.093 48.5122 318 48.7516 318 49C318 49.2652 318.105 49.5196 318.293 49.7071C318.48 49.8946 318.735 50 319 50C319 51.3978 318.861 52.763 318.602 54.084C318.423 54.1615 318.271 54.2895 318.164 54.4523C318.057 54.615 318 54.8053 318 55C318 55.2333 318.082 55.4592 318.23 55.6387C316.394 62.2544 311.409 67.5474 304.982 69.8086C304.938 69.5807 304.816 69.3754 304.636 69.2279C304.457 69.0804 304.232 68.9998 304 69C303.735 69 303.48 69.1054 303.293 69.2929C303.105 69.4804 303 69.7348 303 70C303 70.1307 303.026 70.2601 303.076 70.3809C301.451 70.7835 299.751 71 298 71C298.265 71 298.52 70.8946 298.707 70.7071C298.895 70.5196 299 70.2652 299 70C299 69.7348 298.895 69.4804 298.707 69.2929C298.52 69.1054 298.265 69 298 69C297.735 69 297.48 69.1054 297.293 69.2929C297.105 69.4804 297 69.7348 297 70C297 70.2491 297.093 70.4892 297.26 70.6735C297.428 70.8577 297.658 70.9727 297.906 70.9961C296.083 70.9793 294.384 70.4714 292.92 69.6074C292.844 69.4287 292.717 69.2761 292.555 69.1682C292.394 69.0603 292.204 69.0019 292.01 69C291.247 68.4289 290.571 67.7526 290 66.9902C289.998 66.7965 289.94 66.6075 289.832 66.4462C289.725 66.285 289.573 66.1585 289.395 66.082C288.531 64.6194 288.024 62.9217 288.006 61.0996C288.031 61.3462 288.146 61.5748 288.33 61.7412C288.513 61.9076 288.752 61.9998 289 62C289.265 62 289.52 61.8946 289.707 61.7071C289.895 61.5196 290 61.2652 290 61C290 60.7348 289.895 60.4804 289.707 60.2929C289.52 60.1054 289.265 60 289 60C288.751 59.9999 288.511 60.0927 288.327 60.2603C288.142 60.4279 288.027 60.6583 288.004 60.9062C288.021 59.0829 288.529 57.3837 289.393 55.9199C289.571 55.8436 289.724 55.7169 289.832 55.5553C289.94 55.3937 289.998 55.2041 290 55.0098C290.571 54.2474 291.247 53.5711 292.01 53C292.204 52.9979 292.393 52.9396 292.554 52.8321C292.715 52.7246 292.842 52.5726 292.918 52.3945C294.381 51.5306 296.078 51.0238 297.9 51.0059C297.654 51.0305 297.425 51.1459 297.259 51.3296C297.092 51.5133 297 51.7522 297 52C297 52.2652 297.105 52.5196 297.293 52.7071C297.48 52.8946 297.735 53 298 53C298.265 53 298.52 52.8946 298.707 52.7071C298.895 52.5196 299 52.2652 299 52C299 51.7348 298.895 51.4804 298.707 51.2929C298.52 51.1054 298.265 51 298 51C298.038 51.0002 298.076 50.9982 298.113 50.9941C304 50.9387 308.877 46.6197 309.822 40.9844C309.881 40.9949 309.94 41.0001 310 41C310.265 41 310.52 40.8946 310.707 40.7071C310.895 40.5196 311 40.2652 311 40C311 39.7348 310.895 39.4804 310.707 39.2929C310.52 39.1054 310.265 39 310 39C310 35.9285 308.83 33.1309 306.924 31.0059ZM298 35C295.803 35 294 36.8027 294 39C294 41.1973 295.803 43 298 43C300.197 43 302 41.1973 302 39C302 36.8027 300.197 35 298 35ZM313 36C312.735 36 312.48 36.1054 312.293 36.2929C312.105 36.4804 312 36.7348 312 37C312 37.2652 312.105 37.5196 312.293 37.7071C312.48 37.8946 312.735 38 313 38C313.265 38 313.52 37.8946 313.707 37.7071C313.895 37.5196 314 37.2652 314 37C314 36.7348 313.895 36.4804 313.707 36.2929C313.52 36.1054 313.265 36 313 36ZM298 37C299.116 37 300 37.8836 300 39C300 40.1164 299.116 41 298 41C296.884 41 296 40.1164 296 39C296 37.8836 296.884 37 298 37ZM313 42C312.735 42 312.48 42.1054 312.293 42.2929C312.105 42.4804 312 42.7348 312 43C312 43.2652 312.105 43.5196 312.293 43.7071C312.48 43.8946 312.735 44 313 44C313.265 44 313.52 43.8946 313.707 43.7071C313.895 43.5196 314 43.2652 314 43C314 42.7348 313.895 42.4804 313.707 42.2929C313.52 42.1054 313.265 42 313 42ZM310 45C309.735 45 309.48 45.1054 309.293 45.2929C309.105 45.4804 309 45.7348 309 46C309 46.2652 309.105 46.5196 309.293 46.7071C309.48 46.8946 309.735 47 310 47C310.265 47 310.52 46.8946 310.707 46.7071C310.895 46.5196 311 46.2652 311 46C311 45.7348 310.895 45.4804 310.707 45.2929C310.52 45.1054 310.265 45 310 45ZM316 45C315.735 45 315.48 45.1054 315.293 45.2929C315.105 45.4804 315 45.7348 315 46C315 46.2652 315.105 46.5196 315.293 46.7071C315.48 46.8946 315.735 47 316 47C316.265 47 316.52 46.8946 316.707 46.7071C316.895 46.5196 317 46.2652 317 46C317 45.7348 316.895 45.4804 316.707 45.2929C316.52 45.1054 316.265 45 316 45ZM307 48C306.735 48 306.48 48.1054 306.293 48.2929C306.105 48.4804 306 48.7348 306 49C306 49.2652 306.105 49.5196 306.293 49.7071C306.48 49.8946 306.735 50 307 50C307.265 50 307.52 49.8946 307.707 49.7071C307.895 49.5196 308 49.2652 308 49C308 48.7348 307.895 48.4804 307.707 48.2929C307.52 48.1054 307.265 48 307 48ZM313 48C312.735 48 312.48 48.1054 312.293 48.2929C312.105 48.4804 312 48.7348 312 49C312 49.2652 312.105 49.5196 312.293 49.7071C312.48 49.8946 312.735 50 313 50C313.265 50 313.52 49.8946 313.707 49.7071C313.895 49.5196 314 49.2652 314 49C314 48.7348 313.895 48.4804 313.707 48.2929C313.52 48.1054 313.265 48 313 48ZM304 51C303.735 51 303.48 51.1054 303.293 51.2929C303.105 51.4804 303 51.7348 303 52C303 52.2652 303.105 52.5196 303.293 52.7071C303.48 52.8946 303.735 53 304 53C304.265 53 304.52 52.8946 304.707 52.7071C304.895 52.5196 305 52.2652 305 52C305 51.7348 304.895 51.4804 304.707 51.2929C304.52 51.1054 304.265 51 304 51ZM310 51C309.735 51 309.48 51.1054 309.293 51.2929C309.105 51.4804 309 51.7348 309 52C309 52.2652 309.105 52.5196 309.293 52.7071C309.48 52.8946 309.735 53 310 53C310.265 53 310.52 52.8946 310.707 52.7071C310.895 52.5196 311 52.2652 311 52C311 51.7348 310.895 51.4804 310.707 51.2929C310.52 51.1054 310.265 51 310 51ZM316 51C315.735 51 315.48 51.1054 315.293 51.2929C315.105 51.4804 315 51.7348 315 52C315 52.2652 315.105 52.5196 315.293 52.7071C315.48 52.8946 315.735 53 316 53C316.265 53 316.52 52.8946 316.707 52.7071C316.895 52.5196 317 52.2652 317 52C317 51.7348 316.895 51.4804 316.707 51.2929C316.52 51.1054 316.265 51 316 51ZM295 54C294.735 54 294.48 54.1054 294.293 54.2929C294.105 54.4804 294 54.7348 294 55C294 55.2652 294.105 55.5196 294.293 55.7071C294.48 55.8946 294.735 56 295 56C295.265 56 295.52 55.8946 295.707 55.7071C295.895 55.5196 296 55.2652 296 55C296 54.7348 295.895 54.4804 295.707 54.2929C295.52 54.1054 295.265 54 295 54ZM301 54C300.735 54 300.48 54.1054 300.293 54.2929C300.105 54.4804 300 54.7348 300 55C300 55.2652 300.105 55.5196 300.293 55.7071C300.48 55.8946 300.735 56 301 56C301.265 56 301.52 55.8946 301.707 55.7071C301.895 55.5196 302 55.2652 302 55C302 54.7348 301.895 54.4804 301.707 54.2929C301.52 54.1054 301.265 54 301 54ZM307 54C306.735 54 306.48 54.1054 306.293 54.2929C306.105 54.4804 306 54.7348 306 55C306 55.2652 306.105 55.5196 306.293 55.7071C306.48 55.8946 306.735 56 307 56C307.265 56 307.52 55.8946 307.707 55.7071C307.895 55.5196 308 55.2652 308 55C308 54.7348 307.895 54.4804 307.707 54.2929C307.52 54.1054 307.265 54 307 54ZM313 54C312.735 54 312.48 54.1054 312.293 54.2929C312.105 54.4804 312 54.7348 312 55C312 55.2652 312.105 55.5196 312.293 55.7071C312.48 55.8946 312.735 56 313 56C313.265 56 313.52 55.8946 313.707 55.7071C313.895 55.5196 314 55.2652 314 55C314 54.7348 313.895 54.4804 313.707 54.2929C313.52 54.1054 313.265 54 313 54ZM292 57C291.735 57 291.48 57.1054 291.293 57.2929C291.105 57.4804 291 57.7348 291 58C291 58.2652 291.105 58.5196 291.293 58.7071C291.48 58.8946 291.735 59 292 59C292.265 59 292.52 58.8946 292.707 58.7071C292.895 58.5196 293 58.2652 293 58C293 57.7348 292.895 57.4804 292.707 57.2929C292.52 57.1054 292.265 57 292 57V57ZM298 57C295.803 57 294 58.8027 294 61C294 63.1973 295.803 65 298 65C300.197 65 302 63.1973 302 61C302 58.8027 300.197 57 298 57ZM304 57C303.735 57 303.48 57.1054 303.293 57.2929C303.105 57.4804 303 57.7348 303 58C303 58.2652 303.105 58.5196 303.293 58.7071C303.48 58.8946 303.735 59 304 59C304.265 59 304.52 58.8946 304.707 58.7071C304.895 58.5196 305 58.2652 305 58C305 57.7348 304.895 57.4804 304.707 57.2929C304.52 57.1054 304.265 57 304 57V57ZM310 57C309.735 57 309.48 57.1054 309.293 57.2929C309.105 57.4804 309 57.7348 309 58C309 58.2652 309.105 58.5196 309.293 58.7071C309.48 58.8946 309.735 59 310 59C310.265 59 310.52 58.8946 310.707 58.7071C310.895 58.5196 311 58.2652 311 58C311 57.7348 310.895 57.4804 310.707 57.2929C310.52 57.1054 310.265 57 310 57V57ZM316 57C315.735 57 315.48 57.1054 315.293 57.2929C315.105 57.4804 315 57.7348 315 58C315 58.2652 315.105 58.5196 315.293 58.7071C315.48 58.8946 315.735 59 316 59C316.265 59 316.52 58.8946 316.707 58.7071C316.895 58.5196 317 58.2652 317 58C317 57.7348 316.895 57.4804 316.707 57.2929C316.52 57.1054 316.265 57 316 57V57ZM298 59C299.116 59 300 59.8836 300 61C300 62.1164 299.116 63 298 63C296.884 63 296 62.1164 296 61C296 59.8836 296.884 59 298 59ZM307 60C306.735 60 306.48 60.1054 306.293 60.2929C306.105 60.4804 306 60.7348 306 61C306 61.2652 306.105 61.5196 306.293 61.7071C306.48 61.8946 306.735 62 307 62C307.265 62 307.52 61.8946 307.707 61.7071C307.895 61.5196 308 61.2652 308 61C308 60.7348 307.895 60.4804 307.707 60.2929C307.52 60.1054 307.265 60 307 60ZM313 60C312.735 60 312.48 60.1054 312.293 60.2929C312.105 60.4804 312 60.7348 312 61C312 61.2652 312.105 61.5196 312.293 61.7071C312.48 61.8946 312.735 62 313 62C313.265 62 313.52 61.8946 313.707 61.7071C313.895 61.5196 314 61.2652 314 61C314 60.7348 313.895 60.4804 313.707 60.2929C313.52 60.1054 313.265 60 313 60ZM292 63C291.735 63 291.48 63.1054 291.293 63.2929C291.105 63.4804 291 63.7348 291 64C291 64.2652 291.105 64.5196 291.293 64.7071C291.48 64.8946 291.735 65 292 65C292.265 65 292.52 64.8946 292.707 64.7071C292.895 64.5196 293 64.2652 293 64C293 63.7348 292.895 63.4804 292.707 63.2929C292.52 63.1054 292.265 63 292 63ZM304 63C303.735 63 303.48 63.1054 303.293 63.2929C303.105 63.4804 303 63.7348 303 64C303 64.2652 303.105 64.5196 303.293 64.7071C303.48 64.8946 303.735 65 304 65C304.265 65 304.52 64.8946 304.707 64.7071C304.895 64.5196 305 64.2652 305 64C305 63.7348 304.895 63.4804 304.707 63.2929C304.52 63.1054 304.265 63 304 63ZM310 63C309.735 63 309.48 63.1054 309.293 63.2929C309.105 63.4804 309 63.7348 309 64C309 64.2652 309.105 64.5196 309.293 64.7071C309.48 64.8946 309.735 65 310 65C310.265 65 310.52 64.8946 310.707 64.7071C310.895 64.5196 311 64.2652 311 64C311 63.7348 310.895 63.4804 310.707 63.2929C310.52 63.1054 310.265 63 310 63ZM295 66C294.735 66 294.48 66.1054 294.293 66.2929C294.105 66.4804 294 66.7348 294 67C294 67.2652 294.105 67.5196 294.293 67.7071C294.48 67.8946 294.735 68 295 68C295.265 68 295.52 67.8946 295.707 67.7071C295.895 67.5196 296 67.2652 296 67C296 66.7348 295.895 66.4804 295.707 66.2929C295.52 66.1054 295.265 66 295 66ZM301 66C300.735 66 300.48 66.1054 300.293 66.2929C300.105 66.4804 300 66.7348 300 67C300 67.2652 300.105 67.5196 300.293 67.7071C300.48 67.8946 300.735 68 301 68C301.265 68 301.52 67.8946 301.707 67.7071C301.895 67.5196 302 67.2652 302 67C302 66.7348 301.895 66.4804 301.707 66.2929C301.52 66.1054 301.265 66 301 66ZM307 66C306.735 66 306.48 66.1054 306.293 66.2929C306.105 66.4804 306 66.7348 306 67C306 67.2652 306.105 67.5196 306.293 67.7071C306.48 67.8946 306.735 68 307 68C307.265 68 307.52 67.8946 307.707 67.7071C307.895 67.5196 308 67.2652 308 67C308 66.7348 307.895 66.4804 307.707 66.2929C307.52 66.1054 307.265 66 307 66Z" fill="#457B9D" fill-opacity="0.3"/>
<g clip-path="url(#clip7)">
<path d="M117.137 56.9822C115.834 56.322 114.212 56.8532 113.551 58.1565L96.9822 90.863C96.322 92.1663 96.8532 93.7885 98.1565 94.4487L130.863 111.018C132.166 111.678 133.787 111.15 134.449 109.844L151.018 77.137C151.678 75.8338 151.15 74.2133 149.844 73.5513L117.137 56.9822ZM116.233 58.7663L148.94 75.3354C149.271 75.5032 149.401 75.9021 149.234 76.2332L132.665 108.94C132.497 109.271 132.098 109.401 131.767 109.234L99.0603 92.6646C98.7293 92.4969 98.5986 92.0979 98.7663 91.7668L115.335 59.0603C115.503 58.7293 115.902 58.5986 116.233 58.7663ZM123.12 81.3121L117.437 92.529C116.565 94.2504 115.689 94.3628 114.557 93.7891C113.372 93.1889 112.924 92.0336 112.866 90.7999L109.204 91.0776C109.146 93.2068 110.198 96.0652 112.958 97.4633C116.011 99.0097 118.924 98.445 120.73 94.8803L126.688 83.1197L123.12 81.3121ZM134.229 86.9398C131.19 85.4005 128.257 86.3581 126.963 88.9123C125.56 91.6826 126.53 93.8207 128.457 96.1107L129.122 96.9073C130.329 98.3723 130.885 99.1754 130.294 100.343C129.801 101.315 128.706 101.645 127.295 100.93C125.615 100.079 125.398 98.5368 125.273 96.9761L121.693 97.4045C121.692 99.8869 122.68 102.388 125.841 103.99C129.075 105.628 132.333 105.168 133.885 102.105C135.325 99.2616 134.335 97.1706 132.068 94.4631L131.402 93.6699C130.263 92.2961 129.837 91.5636 130.354 90.5426C130.773 89.7168 131.728 89.4039 132.725 89.9087C133.704 90.4048 134.121 91.1372 134.173 92.4774L137.687 92.1203C137.569 89.5779 136.393 88.0361 134.229 86.9398Z" fill="#457B9D" fill-opacity="0.3"/>
</g>
<path d="M57.9062 964.969C57.8633 964.977 57.8203 964.988 57.7812 965C57.3164 965.105 56.9883 965.523 57 966C57 967.898 56.1211 968.941 54.5 969.969C52.8789 970.996 50.5352 971.828 48.125 972.844C45.7148 973.859 43.2188 975.082 41.2812 977.125C39.5195 978.984 38.2969 981.539 38.0938 984.969C36.2891 984.832 35.2305 984.273 33.9688 983.625C32.5078 982.875 30.7734 982 28 982C26.2891 982 24.6523 983 23.0938 984.469C21.5352 985.938 20.0273 987.934 18.6875 990.25C16.0078 994.883 14 1000.74 14 1006C14 1008.17 14.5391 1010.1 15.5625 1011.56C16.5859 1013.02 18.168 1014 20 1014C24.832 1014 28.3398 1011.56 31.25 1009.28C34.1602 1007 36.5 1005 39 1005C41.5 1005 43.8398 1007 46.75 1009.28C49.6602 1011.56 53.168 1014 58 1014C59.832 1014 61.4141 1013.02 62.4375 1011.56C63.4609 1010.1 64 1008.17 64 1006C64 1000.74 61.9922 994.883 59.3125 990.25C57.9727 987.934 56.4648 985.938 54.9062 984.469C53.3477 983 51.7109 982 50 982C47.2266 982 45.4922 982.875 44.0312 983.625C42.8203 984.246 41.7969 984.773 40.125 984.938C40.3203 981.996 41.3008 980.027 42.75 978.5C44.3672 976.793 46.5781 975.641 48.9062 974.656C51.2344 973.672 53.6289 972.879 55.5625 971.656C57.4961 970.434 59 968.602 59 966C59.0117 965.711 58.8945 965.434 58.6875 965.238C58.4766 965.039 58.1914 964.941 57.9062 964.969ZM28 984C30.3867 984 31.5703 984.625 33.0312 985.375C34.4922 986.125 36.2266 987 39 987C39.0977 987 39.1875 987.004 39.2812 987C39.293 987 39.3008 987 39.3125 987C41.9023 986.938 43.5664 986.098 44.9688 985.375C46.4297 984.625 47.6133 984 50 984C50.8672 984 52.168 984.625 53.5312 985.906C54.8945 987.188 56.2969 989.066 57.5625 991.25C60.0938 995.617 62 1001.26 62 1006C62 1007.83 61.5391 1009.4 60.8125 1010.44C60.0859 1011.48 59.168 1012 58 1012C53.832 1012 50.8398 1009.94 48 1007.72C45.1602 1005.5 42.5 1003 39 1003C35.5 1003 32.8398 1005.5 30 1007.72C27.1602 1009.94 24.168 1012 20 1012C18.832 1012 17.9141 1011.48 17.1875 1010.44C16.4609 1009.4 16 1007.83 16 1006C16 1001.26 17.9062 995.617 20.4375 991.25C21.7031 989.066 23.1055 987.188 24.4688 985.906C25.832 984.625 27.1328 984 28 984ZM51 991C49.8945 991 49 991.895 49 993C49 994.105 49.8945 995 51 995C52.1055 995 53 994.105 53 993C53 991.895 52.1055 991 51 991ZM26 992V995H23V998H26V1001H29V998H32V995H29V992H26ZM47 995C45.8945 995 45 995.895 45 997C45 998.105 45.8945 999 47 999C48.1055 999 49 998.105 49 997C49 995.895 48.1055 995 47 995ZM55 995C53.8945 995 53 995.895 53 997C53 998.105 53.8945 999 55 999C56.1055 999 57 998.105 57 997C57 995.895 56.1055 995 55 995ZM51 999C49.8945 999 49 999.895 49 1001C49 1002.11 49.8945 1003 51 1003C52.1055 1003 53 1002.11 53 1001C53 999.895 52.1055 999 51 999Z" fill="#A8DADC"/>
</g>
<defs>
<clipPath id="clip0">
<rect width="1440" height="1024" fill="white"/>
</clipPath>
<clipPath id="clip1">
<rect width="50" height="50" fill="white" transform="translate(637.193 886.456) rotate(14.7583)"/>
</clipPath>
<clipPath id="clip2">
<rect width="50" height="50" fill="white" transform="translate(1365 527)"/>
</clipPath>
<clipPath id="clip3">
<rect width="50" height="50" fill="white" transform="translate(871.84 953.088) rotate(15.9646)"/>
</clipPath>
<clipPath id="clip4">
<rect width="50" height="50" fill="white" transform="translate(17 786)"/>
</clipPath>
<clipPath id="clip5">
<rect width="50" height="50" fill="white" transform="translate(8.22827 649.537) rotate(-27.7865)"/>
</clipPath>
<clipPath id="clip6">
<rect width="50" height="50" fill="white" transform="translate(0 126.003) rotate(-21.1035)"/>
</clipPath>
<clipPath id="clip7">
<rect width="50" height="50" fill="white" transform="translate(112.996 50.4006) rotate(26.8668)"/>
</clipPath>
</defs>
</svg>
