<svg width="36" height="36" viewBox="0 0 36 36" fill="none" xmlns="http://www.w3.org/2000/svg">
<path d="M30.75 18C30.75 25.05 25.05 30.75 18 30.75C10.95 30.75 5.25 25.05 5.25 18C5.25 10.95 10.95 5.25 18 5.25C25.05 5.25 30.75 10.95 30.75 18Z" fill="white"/>
<path d="M15.75 30.75V26.625C15.75 26.4 15.9 26.25 16.125 26.25C16.35 26.25 16.5 26.4 16.5 26.625V30.75H18V25.875C18 25.65 18.15 25.5 18.375 25.5C18.6 25.5 18.75 25.65 18.75 25.875V30.75H20.25V26.625C20.25 26.4 20.4 26.25 20.625 26.25C20.85 26.25 21 26.4 21 26.625V30.75H22.35C22.5 30.525 22.5 30.3 22.5 29.925V27C22.5 25.35 21.075 23.1 19.275 23.1H17.4C15.675 23.1 14.175 25.425 14.175 27V29.925C14.175 30.225 14.25 30.525 14.325 30.75H15.75ZM30.075 19.8C30.075 19.8 29.1 19.5 28.275 19.5H28.2C27.375 19.5 26.025 19.725 26.025 19.725C25.95 19.725 25.95 19.725 25.95 19.65C25.95 19.575 25.95 19.575 26.025 19.575C26.1 19.575 27.525 19.35 28.35 19.35C29.175 19.35 30.15 19.65 30.225 19.65C30.3 19.65 30.3 19.725 30.3 19.8C30.15 19.725 30.15 19.8 30.075 19.8ZM29.85 20.4C29.85 20.4 28.8 20.1 27.9 20.1C27.225 20.1 25.65 20.25 25.575 20.25C25.5 20.25 25.5 20.25 25.5 20.175C25.5 20.1 25.5 20.1 25.575 20.1C25.65 20.1 27.225 19.95 27.9 19.95C28.875 19.95 29.85 20.25 29.85 20.25C29.925 20.25 29.925 20.325 29.925 20.4C29.925 20.325 29.925 20.4 29.85 20.4ZM5.84999 19.8C5.77499 19.8 5.77499 19.8 5.77499 19.725C5.77499 19.65 5.77499 19.65 5.84999 19.575C6.44999 19.425 7.64999 19.2 8.32499 19.2C8.92499 19.2 10.95 19.35 11.025 19.35C11.1 19.35 11.1 19.425 11.1 19.425C11.1 19.5 11.025 19.5 11.025 19.5C11.025 19.5 8.99999 19.35 8.39999 19.35C7.57499 19.5 6.44999 19.65 5.84999 19.8ZM6.14999 20.925C6.14999 20.925 6.07499 20.925 6.07499 20.85C6.07499 20.775 6.07499 20.775 6.07499 20.7C6.14999 20.7 7.12499 20.1 8.24999 19.95C9.22499 19.8 11.25 20.025 11.4 20.025C11.475 20.025 11.475 20.1 11.475 20.1C11.475 20.175 11.4 20.175 11.4 20.175C11.4 20.175 9.29999 19.95 8.32499 20.1C7.19999 20.325 6.14999 20.925 6.14999 20.925Z" fill="#455A64"/>
<path d="M10.65 17.625C10.65 14.325 14.1 11.25 18.375 11.25C22.65 11.25 26.1 14.25 26.1 17.625C26.1 21 23.625 23.25 18.375 23.25C13.125 23.25 10.65 20.925 10.65 17.625Z" fill="#455A64"/>
<path d="M21.45 12.225C21.45 12.225 22.725 10.5 25.05 10.5C25.95 11.4 25.35 14.1 25.05 14.85L21.45 12.225ZM15.3 12.225C15.3 12.225 14.025 10.5 11.7 10.5C10.8 11.4 11.4 14.1 11.7 14.85L15.3 12.225ZM15.075 26.925C15.075 26.925 13.35 26.925 12.975 26.925C12.075 26.925 11.25 26.55 10.875 25.8C10.425 24.975 10.05 24.075 8.92499 23.325C8.69999 23.175 8.84999 23.025 9.22499 23.025C9.59999 23.1 10.275 23.175 10.8 23.85C11.325 24.525 11.925 25.35 12.9 25.35C13.875 25.35 14.925 25.35 15.525 24.675L15.075 26.925Z" fill="#455A64"/>
<path d="M18 3C9.75 3 3 9.75 3 18C3 26.25 9.75 33 18 33C26.25 33 33 26.25 33 18C33 9.75 26.25 3 18 3ZM18 30C11.4 30 6 24.6 6 18C6 11.4 11.4 6 18 6C24.6 6 30 11.4 30 18C30 24.6 24.6 30 18 30Z" fill="#00BCD4"/>
</svg>
