<svg width="180" height="36" viewBox="0 0 180 36" fill="none" xmlns="http://www.w3.org/2000/svg">
<path d="M84.903 14.3415L81.2227 16.3778C81.0847 16.4535 81 16.5945 81 16.7468V20.8215C81 20.9738 81.0847 21.114 81.2227 21.1905L84.9037 23.2283C85.041 23.304 85.2112 23.304 85.3485 23.2283L89.0287 21.1905C89.1652 21.114 89.25 20.9738 89.25 20.8215V16.7468C89.25 16.5945 89.1652 16.4543 89.0272 16.3778L85.3478 14.3415C85.2788 14.3033 85.2015 14.2845 85.125 14.2845C85.0477 14.2845 84.9712 14.3033 84.9022 14.3415H84.903ZM103.838 18.0098L103.225 18.3488C103.201 18.3615 103.188 18.3848 103.188 18.4103V19.0898C103.188 19.1153 103.202 19.1385 103.225 19.1513L103.838 19.491C103.861 19.5038 103.889 19.5038 103.912 19.491L104.526 19.1513C104.548 19.1385 104.563 19.1153 104.563 19.0898V18.4103C104.563 18.3848 104.548 18.3615 104.525 18.3488L103.912 18.0098C103.9 18.003 103.888 18 103.875 18C103.862 18 103.849 18.003 103.838 18.0098Z" fill="#388E3C"/>
<path d="M98.8132 10.023L97.0215 9.02324C96.9652 8.99174 96.8962 8.99249 96.8407 9.02549C96.7852 9.05849 96.7507 9.11774 96.7507 9.18224L96.75 15.2212L95.0978 14.307C95.0288 14.2687 94.9515 14.25 94.875 14.25C94.7985 14.25 94.7212 14.2687 94.6522 14.307H94.653L90.9728 16.3432C90.8348 16.419 90.75 16.56 90.75 16.7115V20.7862C90.75 20.9385 90.8348 21.0787 90.9728 21.1552L94.6537 23.193C94.791 23.2687 94.9613 23.2687 95.0985 23.193L98.7788 21.1552C98.9153 21.0795 99 20.9385 99 20.7862V10.341C99 10.209 98.928 10.0875 98.8132 10.023ZM96.6495 19.8435L94.977 20.7697C94.9147 20.8042 94.8375 20.8042 94.7753 20.7697L93.102 19.8435C93.0382 19.809 93 19.7445 93 19.6755V17.823C93 17.754 93.0383 17.6902 93.1013 17.655L94.7745 16.7295H94.7737C94.8052 16.7122 94.8397 16.704 94.875 16.704C94.9103 16.704 94.9448 16.713 94.9763 16.7295L96.6488 17.655C96.7118 17.6902 96.75 17.7547 96.75 17.8237V19.6762C96.75 19.7445 96.7118 19.809 96.6495 19.8435Z" fill="#37474F"/>
<path d="M84.903 14.3415L81 20.8215C81 20.9738 81.0847 21.114 81.2227 21.1905L84.9037 23.2283C85.041 23.304 85.2113 23.304 85.3485 23.2283L89.25 16.7468C89.25 16.5945 89.1652 16.4543 89.0272 16.3778L85.3478 14.3415C85.2788 14.3033 85.2015 14.2845 85.125 14.2845C85.0477 14.2845 84.9712 14.3033 84.9022 14.3415" fill="#2E7D32"/>
<path d="M84.903 14.3415L81.2227 16.3778C81.0847 16.4535 81 16.5945 81 16.7468L84.903 23.2283C85.0403 23.304 85.2105 23.304 85.3478 23.2283L89.028 21.1905C89.1653 21.114 89.25 20.9738 89.25 20.8215L85.3478 14.3415C85.2788 14.3033 85.2015 14.2845 85.125 14.2845C85.0477 14.2845 84.9712 14.3033 84.9022 14.3415" fill="#4CAF50"/>
<path d="M107.777 16.3433L104.098 14.307C104.029 14.2688 103.951 14.25 103.875 14.25C103.799 14.25 103.721 14.2688 103.652 14.307H103.653L99.9728 16.3433C99.8355 16.419 99.75 16.563 99.75 16.7205V20.7787C99.75 20.9355 99.8355 21.0802 99.9728 21.156L103.654 23.1937C103.792 23.2702 103.961 23.2702 104.098 23.1937L105.796 22.254C105.951 22.1677 105.95 21.945 105.794 21.8595L102.101 19.8442C102.039 19.809 102 19.7438 102 19.6733V17.8237C102 17.7547 102.038 17.691 102.097 17.658L103.774 16.731H103.773C103.804 16.7138 103.839 16.7055 103.874 16.7055C103.91 16.7055 103.944 16.7145 103.975 16.731L105.652 17.6587C105.712 17.6917 105.749 17.7555 105.749 17.8245V19.3335C105.749 19.398 105.784 19.458 105.84 19.4902C105.896 19.5217 105.965 19.5217 106.021 19.4895L107.82 18.4447C107.931 18.3802 108 18.261 108 18.132V16.722C108 16.5637 107.915 16.419 107.777 16.3433ZM80.0273 16.3433L76.3477 14.307C76.2787 14.2688 76.2015 14.25 76.125 14.25C76.0485 14.25 75.9713 14.2688 75.9023 14.307H75.903L72.2227 16.3433C72.0855 16.419 72 16.563 72 16.7205V22.3193C72 22.3837 72.0345 22.4437 72.0908 22.476C72.147 22.5075 72.216 22.5075 72.2722 22.4752L74.0707 21.4305C74.1817 21.366 74.25 21.2467 74.25 21.1177V17.823C74.25 17.754 74.2875 17.6902 74.3475 17.6572L76.0237 16.7302C76.0552 16.713 76.0897 16.7048 76.125 16.7048C76.1603 16.7048 76.1948 16.7137 76.2263 16.7302L77.9025 17.658C77.9625 17.691 78 17.7547 78 17.8237V21.1185C78 21.2475 78.0682 21.3668 78.18 21.4313L79.9785 22.476C80.0347 22.5082 80.1038 22.5082 80.16 22.4767C80.2155 22.4437 80.25 22.3837 80.25 22.3193V16.7212C80.25 16.5637 80.1645 16.419 80.0273 16.3433Z" fill="#37474F"/>
<path d="M4.5 31.5V4.5H31.5V31.5H4.5Z" fill="#FFD600"/>
<path d="M22.1535 24.7102C22.6725 25.5532 23.2365 26.361 24.4313 26.361C25.4348 26.361 25.9613 25.8622 25.9613 25.1722C25.9613 24.3465 25.4168 24.0533 24.3128 23.5725L23.7075 23.3145C21.9608 22.5735 20.799 21.645 20.799 19.6838C20.799 17.8763 22.1828 16.5007 24.345 16.5007C25.8848 16.5007 26.991 17.034 27.789 18.4305L25.9035 19.6357C25.4888 18.8947 25.0403 18.603 24.345 18.603C23.6355 18.603 23.1863 19.0507 23.1863 19.6357C23.1863 20.3587 23.6363 20.6512 24.675 21.099L25.2803 21.357C27.339 22.2337 28.5 23.1292 28.5 25.1422C28.5 27.3112 26.787 28.5 24.4875 28.5C22.2383 28.5 20.961 27.3713 20.25 25.974L22.1535 24.7102ZM13.464 24.7717C13.8435 25.4512 14.4203 25.974 15.2498 25.974C16.0433 25.974 16.5 25.6605 16.5 24.4418V16.5H18.9998V24.8258C18.9998 27.351 17.535 28.5 15.396 28.5C13.4633 28.5 12.0683 27.1905 11.4998 25.974L13.464 24.7717Z" fill="#000001"/>
<path d="M162 25.5C152.325 25.5 144.75 22.2 144.75 18C144.75 13.8 152.325 10.5 162 10.5C171.675 10.5 179.25 13.8 179.25 18C179.25 22.2 171.675 25.5 162 25.5ZM162 12C152.55 12 146.25 15.075 146.25 18C146.25 20.925 152.55 24 162 24C171.45 24 177.75 20.925 177.75 18C177.75 15.075 171.45 12 162 12Z" fill="#80DEEA"/>
<path d="M155.325 33.45C154.575 33.45 153.975 33.3 153.375 32.925C149.7 30.825 150.675 22.65 155.475 14.25C157.725 10.35 160.5 7.05 163.2 4.95C166.125 2.7 168.75 2.025 170.55 3.075C172.425 4.125 173.1 6.75 172.65 10.425C172.2 13.875 170.7 17.925 168.45 21.825C166.2 25.725 163.425 29.025 160.725 31.125C158.775 32.625 156.9 33.45 155.325 33.45ZM168.675 4.05C167.475 4.05 165.9 4.725 164.175 6.075C161.625 8.1 159 11.25 156.825 15C152.1 23.175 151.65 30.225 154.125 31.65C155.4 32.4 157.5 31.725 159.825 29.925C162.375 27.9 165 24.75 167.175 21C169.35 17.25 170.775 13.425 171.225 10.2C171.6 7.2 171.15 5.1 169.875 4.35C169.5 4.2 169.125 4.05 168.675 4.05Z" fill="#80DEEA"/>
<path d="M168.75 33.45C165 33.45 159.6 28.875 155.55 21.75C150.675 13.35 149.7 5.175 153.375 3.075C157.05 0.974999 163.65 5.85 168.525 14.25C170.775 18.15 172.275 22.2 172.725 25.65C173.25 29.325 172.5 31.875 170.625 33C170.025 33.3 169.425 33.45 168.75 33.45ZM154.125 4.35C151.65 5.775 152.1 12.825 156.825 21C161.55 29.175 167.4 33.075 169.875 31.65C171.15 30.9 171.6 28.8 171.225 25.8C170.775 22.575 169.35 18.75 167.175 15C162.45 6.825 156.6 2.925 154.125 4.35Z" fill="#80DEEA"/>
<path d="M162 21C163.657 21 165 19.6569 165 18C165 16.3431 163.657 15 162 15C160.343 15 159 16.3431 159 18C159 19.6569 160.343 21 162 21Z" fill="#80DEEA"/>
</svg>
