<svg width="330" height="48" viewBox="0 0 330 48" fill="none" xmlns="http://www.w3.org/2000/svg">
<g clip-path="url(#clip0)">
<path d="M183 14L181 40L155 42L183 14Z" fill="#9B1010"/>
<path d="M169 28L181 40L183 14L169 28Z" fill="#B71C1C"/>
<path d="M156.752 15.7525C154.652 17.853 152.785 20.1464 151.259 22.5016C149.733 24.8567 148.577 27.2276 147.858 29.4788C147.138 31.73 146.869 33.8174 147.066 35.6219C147.263 37.4264 147.922 38.9127 149.005 39.9957C150.088 41.0788 151.574 41.7376 153.379 41.9343C155.183 42.1311 157.271 41.8621 159.522 41.1426C161.773 40.4231 164.144 39.2673 166.499 37.741C168.854 36.2148 171.147 34.3481 173.248 32.2475C175.348 30.147 177.215 27.8536 178.741 25.4984C180.267 23.1433 181.423 20.7724 182.142 18.5212C182.862 16.27 183.131 14.1826 182.934 12.3781C182.737 10.5736 182.078 9.08734 180.995 8.00426C179.912 6.92117 178.426 6.26244 176.621 6.06566C174.817 5.86888 172.729 6.13791 170.478 6.8574C168.227 7.57689 165.856 8.73274 163.501 10.259C161.146 11.7852 158.853 13.6519 156.752 15.7525Z" fill="#C62828"/>
<path d="M151 17L158 10L166 6L172 10L169 19L160 27L151 30L147 24L151 17Z" fill="#E53935"/>
<path d="M172 10L166 6H177L172 10ZM183 15L172 10L169 19L183 15ZM160 27L173.235 32.235L169 19L160 27ZM151 30L155 42L160 27L151 30ZM147 24V35L151 30L147 24Z" fill="#FF5252"/>
</g>
<path d="M306.047 5C304.492 5.005 303.414 5.142 302.111 5.367C298.263 6.037 297.562 7.444 297.562 10.037V14H306.562V16H297.22H292.87C290.234 16 287.927 17.242 287.196 20.219C286.37 23.636 286.333 25.776 287.196 29.344C287.851 32.005 289.294 34 291.931 34H295.563V28.896C295.563 25.93 298.249 23 301.327 23H308.563C311.086 23 313.563 21.138 313.563 18.623V10.037C313.563 7.598 311.804 5.774 309.345 5.365C309.406 5.359 307.589 4.994 306.047 5ZM301.063 9C301.884 9 302.563 9.677 302.563 10.502C302.563 11.335 301.884 12 301.063 12C300.226 12 299.563 11.336 299.563 10.502C299.563 9.68 300.226 9 301.063 9Z" fill="#0277BD"/>
<path d="M305.078 43C306.633 42.995 307.711 42.858 309.014 42.633C312.862 41.963 313.563 40.556 313.563 37.963V34H304.563V32H313.906H318.256C320.892 32 323.199 30.758 323.93 27.781C324.756 24.364 324.793 22.224 323.93 18.656C323.274 15.995 321.831 14 319.194 14H315.562V19.104C315.562 22.07 312.876 25 309.798 25H302.562C300.039 25 297.562 26.862 297.562 29.377V37.963C297.562 40.402 299.321 42.226 301.78 42.635C301.719 42.641 303.536 43.006 305.078 43ZM310.063 39C309.242 39 308.563 38.323 308.563 37.498C308.563 36.665 309.242 36 310.063 36C310.9 36 311.563 36.664 311.563 37.498C311.563 38.32 310.899 39 310.063 39Z" fill="#FFC107"/>
<path d="M12.459 31.332C11.402 32.142 10.198 32.759 8.924 33.144C8.634 33.232 8.064 33.209 7.778 33.198C7.778 33.198 7.944 33.216 7.778 33.198C6.849 33.096 5.892 32.758 5.181 32.151C4.47 31.544 3.949 30.56 3.586 29.699C3.023 28.326 3.228 26.495 4.129 25.316C5.079 26.517 5.368 28.095 5.628 29.604C6.857 29.767 7.988 30.553 8.569 31.648C8.979 31.269 9.231 30.754 9.541 30.29C9.851 29.826 10.269 29.38 10.818 29.278C10.818 29.278 13.419 28.165 12.459 31.332Z" fill="#D03827"/>
<path d="M36.219 29.593C37.753 29.108 39.254 28.919 40.842 29.176C41.796 28.089 42.102 26.867 43.5 26.5C43.987 25.284 44.347 24.651 45.287 23.739C45.491 25.398 45.655 27.291 44.5 28.5C43.5 29.5 43.648 29.189 42.778 30.04C42.139 30.666 41.11 31.225 40.23 31.064C38.712 31.93 36.749 32.325 35.005 32.208L36.219 29.593Z" fill="#D03827"/>
<path d="M38.783 36.724C38.583 36.403 38.349 36.024 38.114 35.727C38.096 35.657 38.026 35.535 37.961 35.504C37.109 35.087 36.251 34.681 35.389 34.284C34.404 33.831 33.374 33.382 32.289 33.388C32.071 33.389 31.853 33.409 31.638 33.447L30.472 34.533C32.072 35.843 34.433 36.409 36.499 36.5C36.606 36.384 36.609 37.371 36.839 37.743C37.289 38.472 36.962 38.832 37.499 39.5C37.582 40.53 36.974 41.032 36.565 41.982C38.098 42.122 39.021 40.963 39.499 39.5C39.495 38.552 39.286 37.528 38.783 36.724Z" fill="#D03827"/>
<path d="M11.38 40.499C11.266 40.41 11.147 40.253 11.002 40.243C11.552 39.423 11.924 38.392 11.499 37.501C13.22 36.748 15.865 34.723 17.345 33.567L15.698 32.054C15.347 32.221 13.962 33.302 13.59 33.417C11.96 33.92 10.591 35.264 9.832 36.792C9.167 37.841 9.216 39.292 9.498 40.501C10.214 41.629 11.586 42.782 12.922 42.783C12.563 41.891 12.138 41.09 11.38 40.499Z" fill="#D03827"/>
<path d="M18.991 42.06C18.887 41.99 18.782 41.914 18.717 41.807C18.662 41.716 18.641 41.609 18.62 41.505C18.49 40.844 18.36 40.184 18.23 39.523C18.201 39.374 18.173 39.215 18.232 39.076C18.294 38.932 18.437 38.842 18.571 38.761C19.322 38.309 20.074 37.857 20.825 37.404L18.782 36.587C18.048 36.983 17.376 37.491 16.797 38.091C16.535 38.362 16.287 38.662 16.171 39.02C15.982 39.603 16.171 40.234 16.36 40.818C16.509 41.28 16.658 41.741 16.808 42.203C16.865 42.379 16.924 42.558 17.038 42.703C17.216 42.928 17.503 43.036 17.778 43.116C19.106 43.504 20.513 43.501 21.897 43.496C20.869 43.154 19.888 42.67 18.991 42.06Z" fill="#D03827"/>
<path d="M31.224 39.02C30.5 37.5 29.887 37.11 29.5 36.5C29.217 36.054 28.268 35.488 27.985 35.042L26.424 36.247C26.759 36.638 28.094 38.028 28.429 38.419C28.541 38.549 28.655 38.683 28.71 38.846C28.758 38.988 28.758 39.14 28.758 39.29C28.756 39.841 28.754 40.392 28.753 40.943C28.753 41.093 28.751 41.247 28.701 41.388C28.627 41.597 28.454 41.754 28.28 41.892C27.343 42.636 26.203 43.072 25.061 43.429C26.676 43.597 28.322 43.471 29.892 43.058C30.011 43.027 30.133 42.992 30.23 42.917C30.338 42.833 30.404 42.707 30.465 42.584C31.016 41.477 31.439 40.237 31.224 39.02Z" fill="#D03827"/>
<path d="M41.5 20.5C39.914 20.176 36.477 22.209 35.5 23.5L36.5 24.5C38.572 24.728 41.72 23.02 43.322 21.686L41.5 20.5Z" fill="#D03827"/>
<path d="M5.208 20.679C7.046 22.091 10.198 22.774 12.5 22.5C12.5 22.5 14.5 22.5 14.5 21.5C12.505 20.343 9.739 18.949 7.5 19.5L5.208 20.679Z" fill="#D03827"/>
<path d="M21.827 18.837C21.822 18.351 21.651 17.849 21.285 17.529C20.919 17.208 20.344 17.112 19.933 17.372C19.352 17.74 19.441 18.815 19.499 19.5L21.881 19.123C21.825 19.042 21.828 18.936 21.827 18.837Z" fill="#373837"/>
<path d="M28.522 17.86C28.249 17.353 27.516 17.239 27.006 17.506C26.496 17.773 25.675 18.951 25.5 19.5L28.605 19.627C28.505 19.038 28.805 18.386 28.522 17.86Z" fill="#373837"/>
<path d="M23.354 19.586C20.289 19.589 17.05 20.215 14.285 21.632C12.453 22.571 10.627 23.974 10.069 26.066C9.464 28.337 10.55 28.771 12.063 30.488C13.576 32.205 15.499 33.443 17.119 35.045C17.641 35.561 18.134 36.118 18.723 36.545C19.934 37.423 21.436 37.676 22.882 37.906C24.175 38.112 25.558 38.305 26.739 37.704C27.859 37.134 28.591 35.951 29.605 35.186C30.889 34.218 32.549 33.975 33.857 33.046C36.544 31.138 36.902 29.139 36.992 25.688C37.014 24.843 37.023 23.945 36.613 23.223C36.272 22.624 35.689 22.236 35.107 21.917C31.586 19.989 27.306 19.708 23.354 19.586Z" fill="#F26322"/>
<path d="M38.041 17.733C37.612 16.972 36.631 16.718 35.757 16.722C34.883 16.726 33.996 16.91 33.144 16.714C32.08 16.47 31.242 15.676 30.46 14.914C29.143 13.63 27.825 12.347 26.508 11.063C27.358 10.692 28.314 10.316 29.185 10.635C29.592 10.784 29.932 11.071 30.309 11.286C31.418 11.918 32.77 11.886 34.045 11.836C33.49 9.156 31.792 6.541 29.271 5.477C31.058 5.349 33.147 4.97 34.827 5.594C36.74 6.304 38.224 7.941 39.019 9.82C39.814 11.699 39.971 13.8 39.767 15.831L38.041 17.733Z" fill="#F26322"/>
<path d="M11.197 16.375C11.105 16.42 11.052 16.516 11.002 16.605C9.882 18.62 7.849 20.103 5.589 20.554C5.449 20.582 5.294 20.604 5.171 20.531C4.952 20.401 4.982 20.079 5.048 19.833C5.526 18.07 6.5 15.5 8.5 14.5L11.197 16.375Z" fill="#D03827"/>
<path d="M43.5 21.5C42.5 21.5 40.61 20.259 39.646 19.599C38.802 19.021 37.507 18.523 37.5 17.5C37.833 17.003 38.402 16.579 38.89 16.233C39.101 16.083 39.345 15.945 39.603 15.969C39.834 15.991 40.032 16.139 40.209 16.289C41.67 17.517 43.08 19.639 43.5 21.5Z" fill="#D03827"/>
<path d="M20.88 5.315C17.827 4.52 14.366 4.941 11.867 6.866C9.368 8.791 7.83 11.906 7.82 15.061C8.9 14.653 10.241 15.121 10.831 16.114C11.005 16.407 11.133 16.751 11.421 16.933C11.669 17.09 11.983 17.089 12.276 17.067C14.252 16.918 16.157 15.98 17.48 14.505C18.451 13.422 19.279 11.965 20.714 11.727C18.084 10.648 14.922 10.976 12.57 12.572C13.162 10.913 15.026 10.148 16.681 9.544C18.337 8.941 20.721 5.551 20.88 5.315Z" fill="#F26322"/>
<path d="M45.78 23.68C45.76 23.49 45.63 23.33 45.45 23.27C45.27 23.21 45.08 23.25 44.94 23.38C43.98 24.31 43.58 24.99 43.13 26.09C42.14 26.44 41.65 27.17 41.17 27.89C41.01 28.14 40.83 28.39 40.64 28.64C39.52 28.5 38.42 28.55 37.23 28.81C37.41 27.87 37.46 26.85 37.49 25.7C37.5 25.47 37.5 25.23 37.49 24.98C39.7 24.73 42.33 23.16 43.64 22.07C43.69 22.03 43.72 21.99 43.75 21.93C43.8 21.9 43.85 21.86 43.89 21.81C43.99 21.69 44.02 21.54 43.99 21.39C43.57 19.52 42.14 17.26 40.53 15.91C40.45 15.84 40.36 15.77 40.27 15.71C40.49 13.42 40.22 11.38 39.48 9.63C38.57 7.49 36.94 5.85 35 5.13C33.53 4.58 31.79 4.74 30.25 4.89C29.91 4.92 29.57 4.96 29.23 4.98C29 5 28.81 5.17 28.78 5.4C28.74 5.62 28.86 5.85 29.08 5.94C31.11 6.8 32.74 8.84 33.42 11.36C32.43 11.38 31.4 11.33 30.56 10.85C30.43 10.78 30.32 10.71 30.2 10.63C29.94 10.46 29.68 10.28 29.36 10.17C28.33 9.79 27.29 10.18 26.31 10.61C26.16 10.67 26.05 10.81 26.02 10.97C25.99 11.14 26.04 11.31 26.16 11.42L30.11 15.27C30.86 16 31.8 16.92 33.03 17.2C33.68 17.35 34.32 17.31 34.95 17.26C35.22 17.24 35.49 17.22 35.76 17.22C35.99 17.23 36.55 17.25 37.01 17.46C37 17.47 37 17.49 37 17.5C37.01 18.59 38.01 19.19 38.81 19.67C39 19.78 39.19 19.9 39.36 20.01C39.48 20.09 39.59 20.17 39.7 20.24C38.53 20.61 37.24 21.34 36.27 22.08C35.97 21.83 35.65 21.64 35.35 21.48C33.42 20.42 31.29 19.84 29.1 19.52C29.09 19.46 29.08 19.39 29.08 19.32C29.08 19.2 29.1 19.07 29.11 18.94C29.15 18.53 29.2 18.07 28.96 17.62C28.53 16.83 27.48 16.69 26.77 17.06C26.17 17.38 25.39 18.49 25.1 19.16C24.52 19.13 23.94 19.11 23.37 19.09C23.36 19.09 23.36 19.09 23.35 19.09C23.04 19.09 22.73 19.1 22.42 19.11C22.41 19.11 22.41 19.11 22.4 19.11C22.41 19.01 22.39 18.92 22.33 18.83C22.32 18.16 22.06 17.54 21.62 17.15C21.06 16.67 20.24 16.58 19.67 16.95C18.83 17.48 18.93 18.75 19 19.52C17.41 19.82 15.9 20.31 14.55 20.96C13.1 20.12 11.4 19.27 9.73 18.98C10.26 18.5 10.74 17.95 11.14 17.34C11.15 17.35 11.15 17.36 11.16 17.36C11.43 17.53 11.74 17.58 12.03 17.58C12.13 17.58 12.22 17.57 12.31 17.57C14.42 17.41 16.44 16.41 17.85 14.84C18.07 14.6 18.28 14.33 18.5 14.07C19.2 13.2 19.86 12.38 20.8 12.22C21.02 12.19 21.19 12.01 21.21 11.79C21.24 11.56 21.11 11.35 20.9 11.27C18.88 10.44 16.6 10.38 14.55 11.05C15.23 10.63 16.04 10.31 16.85 10.01C18.74 9.32 21.27 5.63 21.3 5.59C21.39 5.46 21.4 5.29 21.35 5.14C21.29 4.99 21.16 4.87 21.01 4.83C17.58 3.94 14.05 4.55 11.56 6.47C9.06 8.4 7.46 11.52 7.33 14.68C6.12 15.68 5.2 17.37 4.57 19.7C4.42 20.25 4.55 20.58 4.71 20.77V20.78C4.73 20.9 4.8 21 4.9 21.08C6.48 22.29 9.06 23.05 11.35 23.06C10.46 23.92 9.86 24.89 9.58 25.94C9.18 27.45 9.47 28.28 10.06 29.05C9.73 29.26 9.41 29.58 9.13 30.01C9.04 30.14 8.95 30.28 8.87 30.42C8.79 30.55 8.71 30.68 8.62 30.81C7.99 29.99 7.07 29.4 6.06 29.17C5.82 27.82 5.49 26.23 4.52 25.01C4.43 24.89 4.28 24.82 4.13 24.82C4.02 24.81 3.83 24.89 3.73 25.01C2.73 26.32 2.48 28.33 3.12 29.89C3.64 31.11 4.21 31.98 4.86 32.53C5.59 33.16 6.61 33.57 7.8 33.7C7.83 33.71 7.87 33.71 7.91 33.7C8.02 33.71 8.13 33.71 8.24 33.71C8.56 33.71 8.85 33.69 9.07 33.62C10.37 33.23 11.58 32.62 12.66 31.81C13.01 32.15 13.37 32.47 13.73 32.78C13.6 32.86 13.49 32.92 13.44 32.94C11.78 33.45 10.26 34.81 9.41 36.52C8.55 37.88 8.79 39.67 9.01 40.61C9.03 40.67 9.05 40.72 9.08 40.77C9.87 42.02 11.37 43.28 12.92 43.28C13.09 43.28 13.25 43.2 13.34 43.06C13.43 42.92 13.45 42.75 13.39 42.59C13.05 41.75 12.58 40.8 11.69 40.1H11.68C12.13 39.27 12.28 38.47 12.12 37.76C13.37 37.13 14.95 36.02 16.33 34.98C16.48 35.12 16.63 35.26 16.77 35.4L17.12 35.76C17.37 36.02 17.63 36.28 17.91 36.53C17.37 36.88 16.88 37.28 16.44 37.74C16.16 38.03 15.85 38.4 15.7 38.87C15.45 39.63 15.7 40.4 15.88 40.97L16.33 42.36C16.39 42.55 16.47 42.8 16.65 43.01C16.91 43.35 17.3 43.5 17.64 43.6C18.88 43.96 20.15 44 21.39 44H21.9C22.14 44 22.35 43.82 22.39 43.58C22.43 43.33 22.29 43.1 22.05 43.02C21.07 42.69 20.13 42.23 19.27 41.65C19.24 41.63 19.16 41.57 19.15 41.55C19.13 41.53 19.12 41.45 19.11 41.41L18.72 39.43C18.71 39.39 18.69 39.29 18.68 39.29C18.7 39.27 18.79 39.21 18.83 39.19L20.79 38C21.47 38.19 22.16 38.3 22.8 38.4C23.42 38.5 24.12 38.61 24.84 38.61C25.55 38.61 26.28 38.5 26.96 38.15C27.08 38.09 27.2 38.02 27.31 37.95C27.63 38.29 27.92 38.59 28.05 38.74C28.12 38.83 28.21 38.93 28.24 39C28.26 39.07 28.26 39.18 28.26 39.29L28.25 40.94C28.25 41.04 28.25 41.15 28.23 41.22C28.2 41.31 28.07 41.42 27.97 41.5C27.06 42.22 25.91 42.64 24.91 42.95C24.68 43.02 24.54 43.24 24.56 43.48C24.59 43.71 24.77 43.9 25.01 43.92C25.5 43.98 25.98 44 26.47 44C27.66 44 28.85 43.85 30.02 43.54C30.15 43.5 30.35 43.45 30.54 43.31C30.73 43.16 30.83 42.97 30.91 42.81C31.66 41.3 31.92 40.07 31.72 38.93C31.71 38.89 31.69 38.85 31.67 38.81C31.16 37.72 30.7 37.18 30.33 36.75C30.17 36.57 30.04 36.41 29.92 36.23C29.84 36.1 29.73 35.98 29.59 35.85C29.7 35.75 29.8 35.66 29.91 35.58C30.1 35.43 30.31 35.3 30.53 35.19C31.93 36.19 33.92 36.83 36.12 36.98C36.18 37.32 36.24 37.73 36.41 38.01C36.57 38.26 36.6 38.44 36.64 38.67C36.68 38.94 36.73 39.28 37.01 39.68C37.01 40.15 36.81 40.48 36.55 40.93C36.4 41.19 36.25 41.46 36.11 41.79C36.04 41.93 36.05 42.1 36.14 42.24C36.22 42.38 36.36 42.47 36.52 42.48C36.62 42.49 36.72 42.49 36.82 42.49C38.26 42.49 39.37 41.5 39.98 39.66C39.99 39.6 40 39.55 40 39.5C39.99 38.35 39.71 37.27 39.21 36.46L39.19 36.43C39 36.12 38.78 35.78 38.55 35.48C38.49 35.34 38.37 35.15 38.18 35.05C37.33 34.64 36.46 34.23 35.6 33.83C35.18 33.64 34.77 33.45 34.35 33.3C34.62 33.11 34.86 32.91 35.08 32.71C35.25 32.72 35.44 32.73 35.62 32.73C37.26 32.73 38.97 32.31 40.33 31.58C41.38 31.68 42.49 31.02 43.13 30.4C43.51 30.02 43.69 29.88 43.86 29.75C44.08 29.58 44.3 29.41 44.86 28.85C46.13 27.51 46.01 25.56 45.78 23.68ZM37.59 16.63C37.1 16.36 36.49 16.22 35.78 16.22C35.47 16.21 35.18 16.24 34.88 16.26C34.3 16.3 33.76 16.34 33.26 16.23C32.37 16.02 31.65 15.38 30.81 14.56L27.4 11.24C27.98 11.03 28.53 10.92 29.01 11.1C29.22 11.18 29.43 11.32 29.65 11.46C29.78 11.55 29.92 11.64 30.06 11.72C31.33 12.44 32.84 12.38 34.06 12.34C34.21 12.33 34.35 12.26 34.44 12.15C34.53 12.03 34.56 11.88 34.53 11.74C34.02 9.27 32.68 7.13 30.9 5.83C32.22 5.72 33.55 5.66 34.65 6.06C36.33 6.69 37.76 8.13 38.56 10.02C39.22 11.58 39.47 13.42 39.29 15.5C39.02 15.55 38.79 15.7 38.6 15.83C38.27 16.07 37.91 16.33 37.59 16.63ZM39.32 18.81C38.96 18.6 38.6 18.38 38.34 18.13C38.18 17.98 38.06 17.82 38.02 17.64C38.11 17.52 38.23 17.4 38.35 17.3C38.6 17.05 38.9 16.84 39.18 16.64C39.35 16.52 39.48 16.45 39.56 16.47C39.66 16.48 39.81 16.61 39.89 16.67C41.1 17.68 42.19 19.25 42.74 20.71C42.75 20.75 42.77 20.78 42.78 20.82C42.4 20.68 41.88 20.42 41.14 19.97C40.79 19.76 40.39 19.5 39.93 19.19C39.74 19.06 39.53 18.93 39.32 18.81ZM40.89 20.99C41.47 21.34 41.98 21.59 42.41 21.75C41.07 22.71 39.04 23.79 37.41 23.99C37.34 23.64 37.23 23.3 37.05 22.98C37.02 22.93 36.99 22.88 36.95 22.83C38.1 21.97 39.79 21.1 40.89 20.99ZM27.24 17.95C27.54 17.79 27.96 17.87 28.08 18.1C28.18 18.27 28.15 18.53 28.12 18.83C28.1 19.01 28.09 19.2 28.09 19.39H28.08C27.45 19.31 26.81 19.26 26.18 19.22C26.47 18.72 26.97 18.09 27.24 17.95ZM20.2 17.79C20.41 17.67 20.74 17.71 20.96 17.9C21.19 18.11 21.32 18.46 21.33 18.86C21.33 18.94 21.34 19.06 21.38 19.18C21.37 19.18 21.37 19.18 21.37 19.18C20.91 19.22 20.44 19.27 19.99 19.35C19.98 19.18 19.96 18.95 19.96 18.72C19.96 18.32 20.01 17.92 20.2 17.79ZM8.38 14.01C8.69 11.39 10.08 8.87 12.17 7.26C14.24 5.67 17.14 5.08 20.03 5.63C19.23 6.7 17.61 8.67 16.51 9.08C14.64 9.76 12.75 10.58 12.1 12.41C12.03 12.61 12.09 12.84 12.26 12.97C12.43 13.1 12.67 13.11 12.85 12.99C14.7 11.73 17.11 11.31 19.3 11.81C18.68 12.25 18.18 12.87 17.72 13.44C17.52 13.69 17.32 13.94 17.11 14.17C15.87 15.55 14.09 16.43 12.24 16.57C12.04 16.59 11.81 16.59 11.69 16.51C11.69 16.51 11.68 16.51 11.68 16.5C11.57 16.43 11.49 16.26 11.39 16.09C11.36 16.02 11.32 15.95 11.28 15.89C11.27 15.88 11.27 15.87 11.26 15.86C10.78 15.05 9.91 14.53 8.99 14.43C8.88 14.42 8.76 14.41 8.65 14.41C8.55 14.41 8.45 14.42 8.34 14.43C8.35 14.29 8.36 14.15 8.38 14.01ZM5.53 19.96C6.08 17.95 6.86 16.45 7.84 15.56H7.85C7.9 15.56 7.95 15.55 8 15.53C8.85 15.2 9.93 15.58 10.4 16.37L10.48 16.5C9.92 17.46 9.15 18.27 8.25 18.89C7.86 19.16 7.44 19.39 7.01 19.58C6.53 19.79 6.03 19.95 5.51 20.06C5.51 20.03 5.52 20 5.53 19.96ZM6.42 20.86C7.17 20.64 7.9 20.31 8.56 19.88C8.57 19.88 8.57 19.88 8.57 19.88C10.18 19.88 12.01 20.69 13.49 21.5C13.21 21.65 12.95 21.82 12.7 21.99C12.61 22 12.52 22 12.44 22C10.5 22.23 8.11 21.75 6.42 20.86ZM8.78 32.67C8.57 32.73 8.02 32.71 7.82 32.7C6.91 32.6 6.09 32.27 5.51 31.77C4.98 31.33 4.49 30.56 4.05 29.51C3.64 28.51 3.69 27.24 4.15 26.25C4.72 27.29 4.94 28.55 5.13 29.69C5.17 29.91 5.35 30.07 5.56 30.1C6.64 30.24 7.62 30.93 8.13 31.88C8.2 32.02 8.33 32.12 8.49 32.14C8.63 32.17 8.79 32.12 8.91 32.02C9.26 31.69 9.49 31.31 9.72 30.94C9.8 30.82 9.88 30.69 9.96 30.57C10.22 30.18 10.48 29.93 10.75 29.82C10.79 29.87 10.84 29.92 10.89 29.97C11.14 30.22 11.4 30.5 11.69 30.82C11.77 30.91 11.85 31 11.94 31.09C10.98 31.79 9.92 32.32 8.78 32.67ZM11.3 37.04C11.18 37.1 11.08 37.2 11.03 37.33C10.98 37.45 10.99 37.59 11.05 37.71C11.43 38.51 10.92 39.46 10.59 39.96C10.49 40.11 10.48 40.3 10.55 40.46C10.62 40.6 10.74 40.7 10.89 40.73C10.91 40.75 10.93 40.76 10.95 40.78C10.99 40.82 11.03 40.86 11.07 40.89C11.5 41.23 11.81 41.65 12.06 42.1C11.24 41.77 10.45 41.04 9.97 40.3C9.79 39.49 9.61 38.07 10.28 37.01C11.04 35.5 12.33 34.33 13.74 33.89C13.92 33.84 14.18 33.69 14.53 33.44C14.55 33.46 14.58 33.48 14.6 33.5C14.92 33.76 15.24 34.03 15.56 34.3C14.11 35.39 12.48 36.52 11.3 37.04ZM18.31 38.33C18.16 38.43 17.9 38.58 17.77 38.88C17.65 39.17 17.71 39.45 17.74 39.62L18.13 41.6C18.15 41.73 18.19 41.9 18.29 42.07C18.42 42.27 18.6 42.4 18.71 42.47C18.94 42.63 19.17 42.78 19.41 42.92C18.91 42.87 18.4 42.78 17.92 42.64C17.73 42.58 17.52 42.51 17.43 42.39C17.37 42.32 17.33 42.18 17.28 42.05L16.84 40.67C16.65 40.1 16.51 39.59 16.65 39.17C16.74 38.9 16.96 38.65 17.16 38.44C17.64 37.94 18.17 37.52 18.77 37.17C19.03 37.33 19.29 37.47 19.56 37.59L18.31 38.33ZM29.08 36.77C29.22 36.99 29.38 37.18 29.57 37.4C29.91 37.8 30.3 38.25 30.74 39.17C30.88 40.07 30.65 41.09 30.02 42.36C30 42.4 29.95 42.5 29.92 42.52C29.9 42.54 29.8 42.56 29.76 42.57C29.04 42.76 28.31 42.89 27.57 42.95C27.92 42.76 28.27 42.54 28.59 42.28C28.81 42.11 29.05 41.88 29.17 41.55C29.25 41.33 29.25 41.1 29.25 40.94L29.26 39.29C29.26 39.12 29.26 38.9 29.18 38.68C29.1 38.43 28.93 38.23 28.81 38.09C28.68 37.94 28.41 37.66 28.11 37.33C28.35 37.1 28.58 36.86 28.81 36.62C28.83 36.6 28.85 36.57 28.88 36.55C28.97 36.63 29.04 36.71 29.08 36.77ZM35.18 34.74C36.01 35.12 36.83 35.51 37.65 35.91C37.67 35.95 37.69 36 37.72 36.04C37.94 36.31 38.15 36.66 38.34 36.96L38.36 36.99C38.76 37.62 38.98 38.49 39 39.42C38.73 40.21 38.26 41.07 37.45 41.38C37.76 40.85 38.07 40.29 38 39.46C37.99 39.36 37.95 39.26 37.89 39.19C37.69 38.94 37.66 38.78 37.62 38.52C37.58 38.25 37.53 37.91 37.27 37.48C37.19 37.37 37.14 36.98 37.11 36.8C37.05 36.42 37 36.12 36.67 36.01C36.62 36 36.58 35.99 36.53 35.99C36.5 35.99 36.48 35.99 36.46 36C34.58 35.91 32.86 35.45 31.59 34.7C31.71 34.64 31.84 34.59 31.97 34.54C32.37 34.38 32.78 34.21 33.19 34.01C33.84 34.15 34.48 34.42 35.18 34.74ZM33.57 32.64C33.41 32.76 33.24 32.86 33.06 32.96C32.61 33.21 32.11 33.41 31.6 33.61C31.07 33.82 30.53 34.04 30.01 34.33V34.34C29.77 34.47 29.53 34.62 29.3 34.79C29.14 34.91 28.98 35.04 28.83 35.19C28.58 35.41 28.34 35.66 28.12 35.9C28.11 35.91 28.1 35.92 28.09 35.93C27.87 36.16 27.64 36.39 27.42 36.6C27.16 36.83 26.9 37.04 26.61 37.2C26.58 37.22 26.54 37.24 26.51 37.26C25.52 37.76 24.31 37.63 22.96 37.41C22.39 37.32 21.78 37.22 21.19 37.07C20.41 36.88 19.66 36.6 19.02 36.14C18.6 35.84 18.23 35.46 17.83 35.06L17.47 34.69C17.35 34.58 17.24 34.46 17.12 34.36C16.87 34.12 16.62 33.9 16.37 33.68C16.05 33.4 15.72 33.12 15.39 32.85C15.34 32.81 15.29 32.77 15.24 32.73C15.02 32.55 14.81 32.37 14.59 32.19C14.08 31.76 13.57 31.32 13.09 30.85C12.87 30.63 12.65 30.4 12.44 30.16C12.33 30.04 12.22 29.92 12.12 29.81C12.07 29.75 12.02 29.7 11.98 29.65C11.85 29.52 11.73 29.39 11.61 29.27C11.4 29.05 11.21 28.86 11.05 28.68C10.43 27.98 10.21 27.44 10.55 26.19C10.87 24.99 11.7 23.91 13.02 22.97C13.46 22.66 13.96 22.36 14.51 22.08C14.65 22.01 14.79 21.94 14.94 21.88C17.37 20.72 20.33 20.09 23.35 20.09C27.3 20.21 31.45 20.49 34.87 22.36C35.08 22.47 35.29 22.6 35.5 22.75C35.77 22.94 36.01 23.18 36.18 23.47C36.18 23.47 36.18 23.48 36.19 23.48C36.43 23.92 36.49 24.46 36.5 25C36.5 25.23 36.5 25.46 36.49 25.67C36.45 27.04 36.38 28.15 36.14 29.1C36.07 29.39 35.98 29.67 35.87 29.94C35.46 30.95 34.76 31.79 33.57 32.64ZM44.15 28.15C43.64 28.65 43.45 28.8 43.25 28.96C43.05 29.11 42.86 29.26 42.43 29.68C41.9 30.2 41.01 30.7 40.32 30.57C40.21 30.55 40.08 30.57 39.98 30.63C38.85 31.28 37.4 31.67 35.99 31.72C36.42 31.15 36.73 30.55 36.94 29.91C38.3 29.54 39.53 29.47 40.76 29.67C40.94 29.7 41.1 29.63 41.22 29.51C41.53 29.15 41.77 28.79 42 28.44C42.47 27.74 42.84 27.19 43.63 26.98C43.78 26.94 43.91 26.83 43.96 26.69C44.27 25.92 44.52 25.41 44.9 24.9C45 26.19 44.9 27.36 44.15 28.15Z" fill="#010101"/>
<defs>
<clipPath id="clip0">
<rect width="48" height="48" fill="white" transform="translate(141)"/>
</clipPath>
</defs>
</svg>
