<svg width="36" height="36" viewBox="0 0 36 36" fill="none" xmlns="http://www.w3.org/2000/svg">
<path d="M31.5 27.75C31.5 29.8215 29.8215 31.5 27.75 31.5H8.25C6.17925 31.5 4.5 29.8215 4.5 27.75V8.25C4.5 6.1785 6.17925 4.5 8.25 4.5H27.75C29.8215 4.5 31.5 6.1785 31.5 8.25V27.75Z" fill="#0288D1"/>
<path d="M9 14.25H12.75V27H9V14.25ZM10.8637 12.75H10.8427C9.72375 12.75 9 11.916 9 10.8742C9 9.81 9.74625 9 10.8855 9C12.0262 9 12.729 9.81 12.75 10.8742C12.75 11.9152 12.0262 12.75 10.8637 12.75ZM27 27H23.25V20.1757C23.25 18.5272 22.3313 17.4022 20.856 17.4022C19.7303 17.4022 19.1213 18.1613 18.8258 18.8948C18.7177 19.1573 18.75 19.8833 18.75 20.25V27H15V14.25H18.75V16.212C19.2907 15.375 20.1375 14.25 22.3035 14.25C24.987 14.25 26.9993 15.9375 26.9993 19.7055L27 27Z" fill="white"/>
</svg>
