<svg width="300" height="48" viewBox="0 0 300 48" fill="none" xmlns="http://www.w3.org/2000/svg">
<path d="M194.4 24.898L195.309 19H198L195.877 29H193.5L192.005 23.062L190.505 29H188.128L186 19H188.695L189.586 25.035L191.02 19H192.979L194.4 24.898ZM180.4 24.898L181.309 19H184L181.877 29H179.5L178.005 23.062L176.505 29H174.128L172 19H174.695L175.586 25.035L177.02 19H178.979L180.4 24.898ZM208.4 24.898L209.309 19H212L209.877 29H207.5L206.005 23.062L204.505 29H202.128L200 19H202.695L203.586 25.035L205.02 19H206.979L208.4 24.898Z" fill="#3F51B5"/>
<path d="M176.5 12H207.5V14H176.5V12Z" fill="#2196F3"/>
<path d="M176.5 12H207.5V14H176.5V12ZM176.5 34H207.5V36H176.5V34Z" fill="#2196F3"/>
<path d="M175.426 17C177.511 12.089 181.715 8.286 186.888 6.75C184.923 9.048 183.408 12.648 182.615 17H184.663C185.776 11.281 188.182 6.998 191 6.164V17H193V6.164C195.818 6.997 198.224 11.281 199.337 17H201.385C200.592 12.648 199.077 9.048 197.112 6.75C202.285 8.286 206.489 12.089 208.574 17H210.711C207.865 9.419 200.563 4 192 4C183.437 4 176.135 9.419 173.289 17H175.426ZM208.574 31C206.489 35.911 202.285 39.714 197.112 41.25C199.077 38.952 200.592 35.352 201.385 31H199.337C198.224 36.719 195.818 41.002 193 41.836V31H191V41.836C188.182 41.003 185.776 36.719 184.663 31H182.615C183.408 35.352 184.923 38.952 186.888 41.25C181.715 39.714 177.511 35.911 175.426 31H173.289C176.135 38.581 183.437 44 192 44C200.563 44 207.865 38.581 210.711 31H208.574Z" fill="#2196F3"/>
<path d="M89 9.222C89 6.89 90.891 5 93.222 5H122.778C125.11 5 127 6.89 127 9.222V38.778C127 41.109 125.11 43 122.778 43H93.222C90.891 43 89 41.109 89 38.778V9.222Z" fill="#1E88E5"/>
<path d="M108 38C100.28 38 94 31.72 94 24C94 16.28 100.28 10 108 10C115.72 10 122 16.28 122 24C122 31.72 115.72 38 108 38ZM108 12C101.383 12 96 17.383 96 24C96 30.617 101.383 36 108 36C114.617 36 120 30.617 120 24C120 17.383 114.617 12 108 12ZM100.893 27.39L104.707 20.724L106.581 21.805L102.767 28.471L100.893 27.39ZM107.052 15.056C107.237 14.957 107.466 15.017 107.58 15.194C108.386 16.451 111.273 20.932 112.94 24.149L111.3 25.02C109.546 21.795 107.464 16.964 106.87 15.568C106.789 15.376 106.868 15.154 107.052 15.056ZM113.937 26.438L113.055 24.366L111.417 25.238L112.641 27.128L113.937 26.438ZM114.02 26.755L115.831 29.494C116.149 29.974 115.983 30.624 115.475 30.894C114.967 31.164 114.336 30.938 114.115 30.406L112.857 27.374L114.02 26.755ZM100.159 30.994L102.627 28.711L100.754 27.629L100.006 30.905L100.159 30.994ZM107.68 19.897L106.708 21.582L104.834 20.5L105.806 18.815L107.68 19.897ZM107.84 19.621L107.836 19.628L105.963 18.546L105.967 18.539C106.265 18.021 106.927 17.844 107.445 18.143C107.961 18.442 108.139 19.104 107.84 19.621ZM100 23V26H101.254L102.986 23H100ZM111.484 26L111.124 25.444C111.094 25.399 111.013 25.239 110.994 25.201C110.626 24.525 110.244 23.774 109.863 23H106.362L104.632 26H111.484ZM113.302 23.974C113.321 24.011 113.409 24.168 113.429 24.219L114.188 26H116V23H112.779C112.962 23.333 113.14 23.661 113.302 23.974Z" fill="white"/>
<path d="M7.705 4.043C7.292 4.15 7 4.507 7 5.121C7 6.923 7 23.916 7 23.916C7 23.916 7 42.28 7 43.091C7 43.537 7.197 43.836 7.5 43.947L27.681 23.883L7.705 4.043Z" fill="#4DB6AC"/>
<path d="M33.237 18.36L24.93 13.564C24.93 13.564 9.685 4.76101 8.789 4.24401C8.401 4.02001 8.019 3.96101 7.705 4.04301L27.682 23.883L33.237 18.36Z" fill="#DCE775"/>
<path d="M8.417 43.802C8.949 43.494 23.701 34.977 33.282 29.445L27.681 23.883L7.5 43.947C7.748 44.038 8.066 44.004 8.417 43.802Z" fill="#D32F2F"/>
<path d="M41.398 23.071C40.602 22.642 33.298 18.395 33.298 18.395L33.237 18.36L27.681 23.883L33.282 29.445C37.714 26.886 41.043 24.965 41.341 24.792C42.285 24.248 42.194 23.5 41.398 23.071Z" fill="#FBC02D"/>
<path d="M259 8H293C295.21 8 297 9.791 297 12V36C297 38.209 295.21 40 293 40H259C256.791 40 255 38.209 255 36V12C255 9.791 256.791 8 259 8Z" fill="#2196F3"/>
<path d="M269.038 28.725H264.746L263.909 32H260.581L265.451 16H268.331L273.234 32H269.873L269.038 28.725ZM265.431 26.033H268.343L266.887 20.33L265.431 26.033ZM278 26.374V32H275V16H280C281.542 16 282.771 16.491 283.689 17.473C284.605 18.454 285 19.729 285 21.297C285 22.865 284.61 24.103 283.705 25.011C282.798 25.919 281.542 26.374 279.937 26.374H278ZM278 23.681H280.116C280.715 23.681 281.179 23.48 281.509 23.077C281.836 22.674 282 22.088 282 21.319C282 20.52 281.833 19.885 281.497 19.412C281.162 18.94 280.712 18.7 280.148 18.692H278V23.681ZM290 32H287V16H290V32Z" fill="white"/>
</svg>
