<svg width="36" height="36" viewBox="0 0 36 36" fill="none" xmlns="http://www.w3.org/2000/svg">
<path d="M31.5 9.32175C30.5077 9.76125 29.4405 10.0545 28.3147 10.1932C29.4592 9.51375 30.3397 8.43 30.753 7.14975C29.682 7.7775 28.4955 8.23875 27.2332 8.48175C26.2252 7.413 24.7875 6.75 23.1945 6.75C20.1345 6.75 17.6542 9.2085 17.6542 12.24C17.6542 12.669 17.7045 13.0868 17.799 13.4925C13.1955 13.2615 9.11249 11.073 6.38099 7.752C5.90099 8.5635 5.63099 9.51375 5.63099 10.5165C5.63099 12.4223 6.60674 14.1 8.09474 15.0885C7.18649 15.0608 6.33149 14.808 5.58299 14.403C5.58299 14.4195 5.58299 14.4443 5.58299 14.4675C5.58299 17.1308 7.49324 19.3485 10.0252 19.8533C9.56249 19.98 9.07349 20.0505 8.56949 20.0505C8.21174 20.0505 7.86299 20.01 7.52549 19.9493C8.23049 22.1258 10.2757 23.7165 12.699 23.7638C10.803 25.2337 8.41499 26.1143 5.81849 26.1143C5.36999 26.1143 4.93124 26.0888 4.49774 26.0363C6.95099 27.5895 9.86399 28.5 12.9907 28.5C23.1795 28.5 28.7535 20.133 28.7535 12.8745C28.7535 12.6368 28.746 12.3998 28.7347 12.1658C29.8222 11.3978 30.7597 10.4287 31.5 9.32175Z" fill="#03A9F4"/>
</svg>
